<?xml version="1.0" encoding="UTF-8"?>
<!DOCTYPE svg PUBLIC "-//W3C//DTD SVG 1.1//EN" "http://www.w3.org/Graphics/SVG/1.1/DTD/svg11.dtd">
<!-- Creator: CorelDRAW 2020 (64-Bit) -->
<svg xmlns="http://www.w3.org/2000/svg" xml:space="preserve" width="120mm" height="100mm" version="1.1" shape-rendering="geometricPrecision" text-rendering="geometricPrecision" image-rendering="optimizeQuality" fill-rule="evenodd" clip-rule="evenodd"
viewBox="0 0 6209.92 5174.93"
 xmlns:xlink="http://www.w3.org/1999/xlink"
 xmlns:xodm="http://www.corel.com/coreldraw/odm/2003">
 <g id="Слой_x0020_1">
  <metadata id="CorelCorpID_0Corel-Layer"/>
  <g>
   <path fill="#393185" fill-rule="nonzero" d="M3485.61 5174.93c-1,0 -1.99,0 -2.99,0 -746.17,0 -1460.5,-291.79 -1973.44,-806.36 -6.55,-6.9 -10.26,-15.92 -10.26,-25.28 0,-20.57 17.56,-37.25 39.22,-37.25 10.56,0 20.68,4.05 28.05,11.22 498.98,499.72 1193.83,783.2 1919.35,783.2 1461.08,0 2645.96,-1125.33 2645.96,-2512.97 0,-1387.64 -1184.88,-2512.96 -2645.96,-2512.96 -627.97,0 -1236.57,212.61 -1714.65,598.86 -6.97,5.8 -15.99,8.96 -25.3,8.96 -21.67,0 -39.25,-16.69 -39.25,-37.28 0,-10.93 5.06,-21.32 13.82,-28.39 492.12,-397.78 1118.75,-616.69 1765.34,-616.69 1504.39,0 2724.41,1158.69 2724.41,2587.47 0,1428.77 -1220.02,2587.46 -2724.41,2587.46l0.09 0.01zm0 0l0 0 0 0z"/>
  </g>
  <g>
   <path fill="#393185" fill-rule="nonzero" d="M1498.89 4380.96l-698.71 0c-21.66,0 -39.22,-16.68 -39.22,-37.25l0 -2846.6 -722.2 0c-21.48,-0.24 -38.76,-16.84 -38.76,-37.25 0,-6.9 2.02,-13.67 5.83,-19.55l406.74 -627.72c6.86,-11.4 19.58,-18.49 33.41,-18.63l1052.91 0.01c21.66,0 39.22,16.68 39.22,37.25l0 3111.03c0,20.57 -17.56,37.24 -39.22,37.24 -21.66,0 -39.22,-16.68 -39.22,-37.25l0 -3072.86 -992.63 0 -357.83 553.23 690.97 0c0.09,-0.01 0.18,-0.01 0.26,-0.01 21.52,0 38.98,16.58 38.98,37.02 0,0.38 -0.01,0.78 -0.02,1.15l0 2844.76 659.49 0c21.66,0 39.22,16.68 39.22,37.25 0,20.57 -17.56,37.25 -39.22,37.25l0 0.92zm0 0l0 0 0 0z"/>
  </g>
 </g>
</svg>
