<?xml version="1.0" encoding="UTF-8"?>
<!DOCTYPE svg PUBLIC "-//W3C//DTD SVG 1.1//EN" "http://www.w3.org/Graphics/SVG/1.1/DTD/svg11.dtd">
<!-- Creator: CorelDRAW 2020 (64-Bit) -->
<svg xmlns="http://www.w3.org/2000/svg" xml:space="preserve" width="120mm" height="99.9999mm" version="1.1" shape-rendering="geometricPrecision" text-rendering="geometricPrecision" image-rendering="optimizeQuality" fill-rule="evenodd" clip-rule="evenodd"
viewBox="0 0 6367.61 5306.33"
 xmlns:xlink="http://www.w3.org/1999/xlink"
 xmlns:xodm="http://www.corel.com/coreldraw/odm/2003">
 <g id="Слой_x0020_1">
  <metadata id="CorelCorpID_0Corel-Layer"/>
  <path fill="none" fill-rule="nonzero" d="M4187.12 4089.56c18.56,-2.09 37.02,-4.69 55.36,-7.87 21.37,-3.53 15.03,-33.23 -5.41,-32.05 -9.27,0.54 -18.51,0.98 -27.73,1.36"/>
  <path fill="none" fill-rule="nonzero" d="M4255.63 4098.19c-3.07,1.4 -6.31,2.44 -9.63,3.06 -24.87,4.31 -49.99,7.61 -75.3,9.99m66.3 -81.45c19.18,-0.18 35.39,13.89 37.65,33.05 1.75,14.78 -5.98,29 -19.5,35.35"/>
  <path fill="none" fill-rule="nonzero" d="M4330.1 3984.86c331.35,-48.4 678.09,-200.03 907.06,-441.86m-71.34 -0.45c-122.88,103.86 -248,198.46 -398.58,269.52 -125.3,58 -256.86,101.37 -391.64,129.29"/>
  <path fill="none" fill-rule="nonzero" d="M4825.26 3857.79c-169.2,79.31 -350.3,130.72 -535.48,152.13m104.07 -93.63c125.69,-27.52 248.33,-68.62 365.41,-122.6l0 -0.01c141.95,-66.88 260.62,-154.8 376.21,-251.42m128.12 0.82c-116.26,126.86 -267.95,234.46 -439.26,315.18m-268.01 56.57c237.26,-68.88 476.83,-191.52 652.9,-371.98m-14.09 -0.09c-129.21,110.24 -260.01,211.51 -420.83,287.46l0 -0.01c-70.71,33.15 -144,61.63 -218.72,84.57"/>
  <path fill="none" fill-rule="nonzero" d="M4200.26 3154.25c-14.54,36.51 -11.15,53.63 13.33,93.82 9.59,12.88 17.53,26.83 23.74,41.52m-392.57 220.34c-34.26,-34.81 -57.7,-77.56 -56.8,-126.09 2.58,-144.95 128.96,-213.77 258.39,-204.58 39.33,0 58.24,-7.94 80.44,-44.24m-60.92 -35.23c-6.77,7.86 -13.63,13.8 -20.53,16.93 -21.14,9.66 -65.54,0 -90.44,4.24 -27.29,4.87 -53.53,13.88 -77.91,26.71 -53.12,25.84 -96.82,68.09 -124.51,120.43 -39.79,77.76 -32.8,160.68 3.2,231.03m563.57 -198.62c-4.71,-22.49 -12.75,-44.23 -23.91,-64.47 -26.73,-45.45 -41.87,-38.53 -18.92,-84.04m-225.84 -21.29l0 -3.06c-1.17,3.53 -4.23,12.72 0,3.06m-92.08 49.5l-5.17 0"/>
  <path fill="none" fill-rule="nonzero" d="M4137.83 3312.52c-8.64,-7.99 -18.55,-14.74 -29.48,-19.91 -46.98,-19.09 -139.53,-13.67 -172.65,29.69 -40.16,52.19 -4.89,110.56 49.79,143.82m87.62 -124.01l-6.81 0m-67.66 13.43l-1.87 0m-35.01 9.2l0 3.77m44.92 61.11c-29.31,-12.31 -53.16,-31.86 -43.74,-57.34 -1.3,-4.76 -1.29,-9.84 -0.01,-14.61 27.12,20.02 86.31,-24.33 121.06,-12.49"/>
  <g>
   <path fill="#393185" fill-rule="nonzero" d="M3723.59 5305.38c-0.74,0 -2.02,0 -2.66,0 -723.97,0.01 -1417.02,-299.08 -1914.69,-826.53 -6.36,-7.08 -9.95,-16.32 -9.95,-25.91 0,-21.08 17.04,-38.18 38.05,-38.18 10.25,0 20.07,4.15 27.22,11.5 480.62,511.98 1151.28,802.77 1852.38,802.77 3.11,0 6.52,0 9.63,0 1417.6,-0.02 2567.21,-1153.5 2567.2,-2575.86 0,-1422.35 -1149.61,-2575.83 -2567.19,-2575.83 -2.48,-0.01 -5.59,-0.01 -8.07,-0.01 -563.43,0 -1111.96,188.24 -1557.37,534.17 -6.61,5.16 -14.89,8.02 -23.4,8.02 -21.07,0 -38.15,-17.14 -38.15,-38.29 0,-11.78 5.41,-22.92 14.66,-30.17 461.96,-357.14 1029.6,-551.09 1613.05,-551.09 1459.6,-0.01 2643.3,1187.67 2643.3,2652.19 0,703.6 -279.14,1379.36 -775.14,1876.38 -492.89,497.79 -1163.85,777.76 -1863.36,777.76 -1.92,0 -4.17,0 -6.09,0l0.58 -0.95zm0 0l0 0 0 0z"/>
  </g>
  <g>
   <path fill="#393185" fill-rule="nonzero" d="M1833.61 4491.56l-1795.55 0c-0.07,0 -0.15,0 -0.23,0 -20.89,0 -37.82,-17 -37.82,-37.95 0,-0.07 0,-0.15 0,-0.23l-0.01 -328.78c0.01,-0.06 0.01,-0.12 0.01,-0.18 0,-9.9 3.88,-19.41 10.8,-26.46l1109.18 -1135.07c264.49,-268.69 442.31,-486.69 528.99,-648.14 86.67,-161.45 128.25,-304.27 128.25,-430.84 0.16,-4.87 0.27,-10.01 0.27,-14.95 0,-113.49 -45.74,-222.36 -126.65,-301.59 -85.26,-83.9 -192.61,-124.91 -328.86,-124.91 -3.25,-0.06 -6.72,-0.11 -10.03,-0.11 -125.96,0 -245.72,55.41 -327.51,151.46 -90.9,101.82 -140.94,243.7 -146.34,420.94 -0.63,20.58 -17.47,36.97 -38.03,36.97 -0.01,0 -0.02,0 -0.02,0l-664.52 0c-0.01,0 -0.03,0 -0.04,0 -21.01,0 -38.05,-17.1 -38.05,-38.18 0,-0.63 0.02,-1.26 0.04,-1.88 18.09,-396.19 144.7,-712.96 375.84,-941.58 231.13,-228.61 532.04,-344.81 892.61,-344.81 7.72,-0.09 16.05,-0.24 23.93,-0.24 199.36,0 396.05,49.12 572.06,143.01 173.22,96.63 317.14,239.85 414.58,413.24 99.18,165.69 152.68,355.36 154.94,548.62 0,218.72 -62.48,456.53 -185.8,707.06 -123.32,250.53 -348.12,545.62 -671.34,882.88l-341.49 360.87 971.07 0c21.01,-0.01 38.05,17.1 38.05,38.18 0,21.08 -17.04,38.18 -38.05,38.18l-1059.62 0.01c-0.07,0 -0.15,0 -0.22,0 -21.01,0 -38.05,-17.1 -38.05,-38.18 0,-9.83 3.78,-19.29 10.56,-26.39l402.61 -425.65c317.81,-331.61 540.26,-622.22 657.71,-863.8 117.45,-241.59 178.28,-466.43 178.28,-673.13 -2.38,-179.77 -52.6,-356.37 -144.99,-510.51 -90.43,-161.22 -224.08,-294.46 -385.21,-384.43 -164.98,-87.69 -349.18,-133.58 -536.04,-133.58 -7.41,0 -14.96,0.14 -22.23,0.28 -340.6,0 -623.18,108.65 -839.99,322.89 -209.1,206.87 -326.55,493 -350.04,850.77l587.25 0c12.22,-178.89 67.18,-324.3 164.43,-432.49 96.62,-112.21 237.25,-176.84 385.08,-176.84 2.98,0 6.15,0.06 9.07,0.06 154.09,0 281.88,49.49 381.24,146.83 95.45,93.96 149.37,222.61 149.37,356.81 0,4.7 -0.06,9.52 -0.18,14.15 0,139.3 -46.98,296.5 -137.41,466.9 -90.44,170.4 -270.39,391.97 -540.99,665.61l-1098.38 1123.76 0 274.11 1757.5 -0.01c21.02,0 38.06,17.1 38.06,38.18 0,21.08 -17.04,38.18 -38.05,38.18l-0.01 0.95zm0 0l0 0 0 0z"/>
  </g>
 </g>
</svg>
