<?xml version="1.0" encoding="UTF-8"?>
<!DOCTYPE svg PUBLIC "-//W3C//DTD SVG 1.1//EN" "http://www.w3.org/Graphics/SVG/1.1/DTD/svg11.dtd">
<!-- Creator: CorelDRAW 2020 (64-Bit) -->
<svg xmlns="http://www.w3.org/2000/svg" xml:space="preserve" width="120mm" height="100mm" version="1.1" shape-rendering="geometricPrecision" text-rendering="geometricPrecision" image-rendering="optimizeQuality" fill-rule="evenodd" clip-rule="evenodd"
viewBox="0 0 6644.52 5537.1"
 xmlns:xlink="http://www.w3.org/1999/xlink"
 xmlns:xodm="http://www.corel.com/coreldraw/odm/2003">
 <g id="Слой_x0020_1">
  <metadata id="CorelCorpID_0Corel-Layer"/>
  <g>
   <path fill="#393185" fill-rule="nonzero" d="M3758.23 5537.09c-2.15,0.01 -4.6,0.01 -6.71,0.01 -763.6,0 -1496.41,-292.46 -2034.54,-811.9 -7.61,-7.39 -11.99,-17.52 -11.99,-28.08 0,-10.56 4.37,-20.7 12.15,-28.17 7.76,-7.52 18.34,-11.77 29.37,-11.77 11.04,0 21.62,4.25 29.37,11.76 525.17,503.72 1238.72,787.29 1982.04,787.29 1547.9,0 2803.19,-1203.86 2803.19,-2688.34 0,-1484.49 -1255.29,-2688.35 -2803.19,-2688.35 -546.53,0 -1082.12,153.6 -1538.65,441.11 -6.9,4.41 -14.84,6.69 -22.96,6.69 -22.96,0 -41.58,-17.86 -41.58,-39.88 0,-13.43 7.05,-25.96 18.75,-33.33 470.16,-295.95 1021.37,-454.13 1584.21,-454.13 1594.08,0 2886.82,1239.78 2886.82,2768.55 0,1528.77 -1292.03,2768.21 -2886.11,2768.54l-0.18 0zm0 0l0 0 0 0z"/>
  </g>
  <g>
   <path fill="#393185" fill-rule="nonzero" d="M1364.96 4765.13c-389.39,0 -711.57,-115.13 -958.08,-341.71 -246.51,-226.57 -383.23,-538.5 -406.83,-926.71 -0.03,-0.59 -0.04,-1.19 -0.04,-1.78 0,-10.28 4.05,-20.19 11.33,-27.74 7.85,-8 18.81,-12.55 30.27,-12.55 0,0 0,0 0,0l737.48 0c0.06,-0.01 0.14,-0.01 0.2,-0.01 20.43,0 37.79,14.34 40.84,33.7 30.27,183.77 97.22,321.53 198.54,409.36 101.32,87.82 230.86,131.37 384.77,131.37 164.17,0 296.27,-49.2 403.75,-149.57 101.53,-91.77 159.17,-219.78 159.17,-353.6 0,-3.62 -0.06,-7.41 -0.12,-10.97 0,-158.91 -70.54,-289.79 -215.73,-400.25 -145.18,-110.45 -362.71,-169.25 -643.08,-172.2 -22.75,-0.28 -41.05,-18.05 -41.05,-39.86 0,0 0,0 0,0l-0.01 -613.29c0.01,-0.03 0.01,-0.08 0.01,-0.11 0,-20.86 16.78,-38.2 38.48,-39.74 173.15,-13.04 303.2,-38.87 384.77,-76.76 76.85,-32.52 142.96,-84.73 190.87,-150.81 42.45,-58.64 65.58,-128.33 66.17,-199.76 0.06,-2.98 0.13,-6.02 0.13,-9.03 0,-82.09 -35.9,-160.52 -98.89,-216.06 -67.2,-60.52 -153.91,-90.04 -264.47,-90.04 -0.6,0 -1.24,0 -1.83,0 -95.17,0 -187.74,30.05 -263.39,85.37 -78.03,54.91 -135.47,132.65 -163.69,221.42 -5.27,16.69 -21.29,28.17 -39.5,28.27l-716.19 0c-11.94,-0.09 -23.31,-5.01 -31.29,-13.53 -6.66,-7.3 -10.34,-16.69 -10.34,-26.4 0,-1.7 0.12,-3.4 0.34,-5.09 38.22,-284.87 146.98,-516.61 322.95,-691.77 244.72,-241.83 556.64,-364.34 927.04,-364.34 330.64,0 612.04,102.34 836.49,304.31 224.45,201.97 339.37,446.99 339.37,726.21 0.02,1.81 0.02,3.58 0.02,5.35 0,168.52 -52.05,333.49 -149.53,473.67 -88.41,125.2 -205.94,229.3 -343.06,303.73 83.12,29.66 162.64,68.39 236.57,115.22 11.57,7.35 18.53,19.83 18.53,33.17 0,22.04 -18.64,39.92 -41.62,39.92 -8.21,0 -16.25,-2.34 -23.08,-6.71 -94.91,-59.41 -198.96,-105.03 -307.88,-135.05 -17.42,-5.11 -29.38,-20.59 -29.38,-38.13 0,-15.12 8.93,-28.94 23.04,-35.68 159.93,-70.34 297.6,-181 397.65,-319.81 88.98,-127.7 136.68,-278.32 136.68,-432.07 0,-1.32 0,-2.75 0,-4.08 0,-256.34 -105.17,-480.94 -312.95,-668.16 -207.78,-187.21 -472,-282.68 -780.85,-282.68 -347.07,0 -638.98,114.39 -867.53,340.22 -153.91,152.28 -252.41,354.25 -293.19,601.24l638.47 0c35.7,-93.34 99.52,-174.55 183.17,-233.22 89.81,-65.55 199.75,-101.1 312.66,-101.1 0.76,0 1.58,0 2.33,0 131.07,0.01 239.32,37.65 322.68,111.45 79.67,70.75 125.04,170.23 125.04,274.4 0,2.87 -0.05,5.94 -0.1,8.77 -0.44,87.31 -28.49,172.52 -80.32,244.26 -55.4,77.64 -132.22,139.45 -221.59,178.36 -86.71,39.61 -210.34,66.17 -377.08,81.18l0 537.03c279.6,8.85 498.92,72.33 652.57,189.17 164.17,124.73 247.54,280.45 247.54,462.74 -0.01,2.98 0.06,6.31 0.06,9.37 0,155.82 -66.76,304.97 -184.49,412.25 -118.65,110.63 -277.72,172.5 -443.16,172.5 -6.14,0 -12.5,-0.15 -18.55,-0.3 -176.48,0 -325.27,-50.92 -441.72,-151.78 -109.53,-94.71 -182.9,-236.9 -218.81,-422.64l-659.27 0.04c29.24,347.85 156.47,627.31 378.36,831.5 230.86,212.05 533.29,319.81 900.37,319.81 2.57,0.01 5.39,0.01 8.01,0.01 117.07,0 234.53,-12 348.78,-35.61 3.02,-0.71 6.07,-1.04 9.14,-1.04 23.01,0 41.66,17.9 41.66,39.96 0,18.7 -13.53,34.91 -32.56,38.99 -120.13,24.57 -243.43,37.41 -366.51,37.41 -2.76,0 -5.74,0 -8.5,0l-0.02 -0.02zm0 0l0 0 0 0z"/>
  </g>
 </g>
</svg>
