<?xml version="1.0" encoding="UTF-8"?>
<!DOCTYPE svg PUBLIC "-//W3C//DTD SVG 1.1//EN" "http://www.w3.org/Graphics/SVG/1.1/DTD/svg11.dtd">
<!-- Creator: CorelDRAW 2020 (64-Bit) -->
<svg xmlns="http://www.w3.org/2000/svg" xml:space="preserve" width="120mm" height="100mm" version="1.1" shape-rendering="geometricPrecision" text-rendering="geometricPrecision" image-rendering="optimizeQuality" fill-rule="evenodd" clip-rule="evenodd"
viewBox="0 0 6117.2 5097.67"
 xmlns:xlink="http://www.w3.org/1999/xlink"
 xmlns:xodm="http://www.corel.com/coreldraw/odm/2003">
 <g id="Слой_x0020_1">
  <metadata id="CorelCorpID_0Corel-Layer"/>
  <g>
   <path fill="#393185" fill-rule="nonzero" d="M3607.03 5097.67c-0.64,0 -1.25,0 -1.87,0 -687.47,0 -1345.59,-287.41 -1818.16,-794.25 -6.03,-6.81 -9.45,-15.69 -9.45,-24.9 0,-20.26 16.18,-36.69 36.14,-36.69 9.73,0 19.06,3.99 25.85,11.05 460.1,491.65 1099.32,770.54 1767.4,770.54 1345.99,0 2437.55,-1108.32 2437.55,-2475 0,-1366.67 -1091.56,-2475 -2437.55,-2475 -447.87,0 -887.7,125.4 -1269.81,362.29 -5.63,3.56 -12.16,5.43 -18.82,5.43 -12.61,0 -24.33,-6.69 -30.88,-17.63 -3.42,-5.76 -5.23,-12.36 -5.23,-19.08 0,-12.81 6.54,-24.7 17.28,-31.42 393.57,-243.57 846.22,-373.02 1307.45,-373.02 1386.15,0 2510.26,1141.39 2510.26,2548.84 0,1407.44 -1124.12,2548.83 -2510.26,2548.83l0.1 0zm0 0l0 0 0 0z"/>
  </g>
  <g>
   <path fill="#393185" fill-rule="nonzero" d="M1812.32 4315.63l-289.97 0c-19.95,-0.01 -36.13,-16.43 -36.13,-36.69l0 -674.01 -1449.86 0c0,0 0,0 0,0 -19.99,0 -36.24,-16.39 -36.36,-36.69l-0.01 -609.01c0.02,-7.28 2.2,-14.39 6.24,-20.39l1474.62 -2226.32c6.72,-10.05 17.92,-16.08 29.89,-16.08l646.86 0c0.08,0 0.15,0 0.22,0 19.83,0 35.91,16.33 35.91,36.47 0,0.07 0,0.15 0,0.22l0 2189.41 267.66 0c19.91,0.12 36.02,16.48 36.14,36.69l-0.01 609.01c0.06,0.71 0.09,1.43 0.09,2.15 0,0.71 -0.03,1.44 -0.09,2.15 0.05,0.67 0.08,1.36 0.08,2.04 0,0.68 -0.03,1.36 -0.08,2.03 -0.12,20.21 -16.24,36.57 -36.14,36.69l-303.36 0c-19.95,0 -36.13,-16.43 -36.13,-36.69 0,-20.26 16.18,-36.69 36.14,-36.69l267.66 0 0 -543.55 -267.67 0c-19.95,-0.01 -36.13,-16.43 -36.13,-36.7l-0.01 -2189.86 -591.76 0 -1457.67 2200.73 0 560.77 1449.86 0c0.08,-0.01 0.16,-0.01 0.23,-0.01 19.95,0 36.13,16.43 36.13,36.69 0,0.07 0,0.15 0,0.22l0 673.34 253.61 0c19.96,0 36.14,16.43 36.14,36.69 0,20.26 -16.19,36.69 -36.14,36.69l-0.01 0.68zm-289.97 -1319.49l-777.57 0c-0.13,0 -0.29,0 -0.42,0 -19.84,0 -35.91,-16.33 -35.91,-36.46 0,-7.45 2.25,-14.73 6.44,-20.84l777.8 -1159.82c6.57,-10.88 18.24,-17.52 30.81,-17.52 19.95,0 36.13,16.43 36.13,36.69 0,0.48 -0.01,0.96 -0.03,1.44l0 1158.91c0.01,0.08 0.01,0.15 0.01,0.22 0,20.14 -16.08,36.46 -35.91,36.46 -0.08,0 -0.15,0 -0.23,0l-1.12 0.91zm-708.42 -74.28l672.51 0 0 -1002.42 -672.51 1002.42z"/>
  </g>
 </g>
</svg>
