<svg width="106" height="106" viewBox="0 0 106 106" fill="none" xmlns="http://www.w3.org/2000/svg">
<path d="M97.6593 28.5668L64.5343 10.348C64.0452 10.079 63.496 9.93787 62.9377 9.93787C62.3794 9.93787 61.8302 10.079 61.3411 10.348L28.2161 28.5668C27.6967 28.8527 27.2636 29.2729 26.962 29.7833C26.6603 30.2937 26.5012 30.8757 26.5012 31.4685C26.5012 32.0614 26.6603 32.6434 26.962 33.1538C27.2636 33.6642 27.6967 34.0844 28.2161 34.3703L59.6252 51.645V87.1517L49.5684 81.6198L46.3752 87.42L61.3411 95.6515C61.83 95.9212 62.3793 96.0627 62.9377 96.0627C63.4961 96.0627 64.0454 95.9212 64.5343 95.6515L97.6593 77.4328C98.1789 77.147 98.6122 76.7269 98.914 76.2165C99.2158 75.7061 99.3751 75.124 99.3752 74.531V31.4685C99.3751 30.8756 99.2158 30.2935 98.914 29.7831C98.6122 29.2727 98.1789 28.8526 97.6593 28.5668ZM62.9377 17.0327L89.1893 31.4685L62.9377 45.9044L36.6861 31.4685L62.9377 17.0327ZM92.7502 72.5734L66.2502 87.1484V51.6417L92.7502 37.0667V72.5734Z" fill="#005197"/>
<path d="M33.125 53H6.625V46.375H33.125V53ZM39.75 79.5H13.25V72.875H39.75V79.5ZM46.375 66.25H19.875V59.625H46.375V66.25Z" fill="#005197"/>
</svg>
