<?xml version="1.0" encoding="iso-8859-1"?>
<!-- Generator: Adobe Illustrator 19.0.0, SVG Export Plug-In . SVG Version: 6.00 Build 0)  -->
<svg version="1.1" id="Layer_1" xmlns="http://www.w3.org/2000/svg" xmlns:xlink="http://www.w3.org/1999/xlink" x="0px" y="0px"
	 viewBox="0 0 349.877 349.877" style="enable-background:new 0 0 349.877 349.877;" xml:space="preserve">
<g>
	<g>
		<path d="M258.536,127.979l-7.997-7.913c-4.214-4.214-11.267-4.214-15.482,0l-76.116,76.116l-45.928-45.928
			c-4.214-4.214-11.267-4.214-15.482,0l-7.913,7.913c-1.978,1.978-3.096,4.816-3.096,7.569s1.118,5.677,3.096,7.569l61.495,61.495
			c1.978,1.978,4.816,3.096,7.569,3.096c3.096,0,5.935-1.376,7.913-3.354c0.258,0,0.602-0.258,0.602-0.602l6.794-6.45l0.86-0.602
			l83.685-83.685C262.75,138.987,262.75,132.193,258.536,127.979z M254.237,138.643l-83.685,83.685l-7.913,7.569
			c-0.258,0-0.602,0.258-0.602,0.602c-0.86,0.86-2.236,1.376-3.354,1.376c-1.376,0-2.838-0.602-3.698-1.376L93.49,169.004
			c-0.86-0.86-1.376-2.236-1.376-3.698c0-1.462,0.602-2.838,1.376-3.698l7.913-7.913c0.86-0.86,2.236-1.376,3.698-1.376
			c1.462,0,2.838,0.602,3.956,1.118l47.906,47.906c1.118,1.118,2.838,1.118,3.956,0l78.094-78.094c1.978-1.978,5.333-1.978,7.311,0
			l7.913,7.913C256.215,133.311,256.215,136.665,254.237,138.643z"/>
	</g>
</g>
<g>
	<g>
		<path d="M344.114,207.965c-3.698-3.698-8.429-5.677-13.503-5.677h-95.554c-10.407,0-19.179,8.773-19.179,19.437v16.083
			c0,10.407,8.429,19.179,19.179,19.179h27.609c-22.792,24.254-54.443,38.015-87.641,38.015
			c-66.225,0-120.066-53.84-120.066-120.066s53.84-120.065,120.066-120.065c49.626,0,94.693,31.306,112.153,77.492
			c5.333,14.105,21.158,21.157,35.263,15.825c14.105-5.333,21.157-21.158,15.825-35.263C312.635,45.584,246.926,0.172,174.767,0.172
			C78.352,0.172,0,78.524,0,174.939s78.352,174.767,174.767,174.767c44.294,0,86.781-17.201,120.41-48.508v15.482
			c0,10.751,8.773,19.179,19.438,19.179h16.083c10.751,0,19.179-8.773,19.179-19.179v-95.297
			C349.79,216.48,347.812,211.664,344.114,207.965z M344.2,316.764h-0.086v0c0,7.569-6.193,13.503-13.503,13.503h-16.083
			c-7.569,0-13.847-6.193-13.847-13.503v-22.018c0-1.118-0.602-1.978-1.72-2.494c-1.118-0.602-2.236-0.258-3.096,0.602
			c-32.941,33.285-76.116,51.346-120.926,51.346c-93.318,0-169.176-75.858-169.176-169.176S81.621,5.849,174.938,5.849
			c69.924,0,133.311,43.691,158.167,109.057c4.214,11.009-1.376,23.652-12.643,27.867c-11.009,4.214-23.652-1.376-27.867-12.643
			c-18.32-48.165-65.71-80.934-117.572-80.934c-69.322,0-125.743,56.421-125.743,125.743s56.421,125.743,125.743,125.743
			c37.241,0,72.16-16.341,96.156-44.81c0.602-0.86,0.86-1.978,0.258-3.096c-0.602-1.118-1.376-1.72-2.494-1.72h-33.801
			c-7.311,0-13.503-5.935-13.503-13.503v-16.083c0-7.569,6.193-13.847,13.503-13.847h95.554c3.698,0,7.052,1.72,9.547,4.214
			c2.494,2.494,3.956,5.935,3.956,9.547V316.764z"/>
	</g>
</g>
<g>
	<g>
		<path d="M334.999,218.028c-0.689-0.43-1.893-1.892-4.13-1.892h-95.554c-1.118,0-2.494,0.258-3.956,1.72
			c-1.118,0.86-1.72,2.494-1.72,3.956v16.083c0,3.096,2.494,5.677,5.677,5.677h33.801c4.214,0,8.171,2.236,9.891,6.193
			c1.978,3.956,1.376,8.429-1.376,11.525c-25.63,30.447-62.871,47.648-102.348,47.648c-73.536,0-133.655-60.033-133.655-133.655
			S101.66,41.627,175.282,41.627c54.959,0,105.187,34.661,124.882,86.265c2.236,5.075,7.311,8.773,12.987,8.773
			c1.72,0,3.096-0.258,4.816-0.86c3.354-1.376,6.193-3.956,7.569-7.311c1.376-3.355,1.72-7.052,0.258-10.407
			c-6.45-16.599-15.223-31.823-26.748-45.669c-0.86-1.118-2.838-1.376-3.956-0.258c-1.118,0.86-1.376,2.838-0.258,3.956
			c11.009,13.245,19.437,27.867,25.63,43.95c0.602,1.978,0.602,4.214-0.258,6.193c-0.86,1.978-2.494,3.354-4.472,4.214
			c-4.214,1.376-9.03-0.86-10.407-4.816c-20.298-53.841-72.762-89.964-130.215-89.964c-76.719,0-139.245,62.613-139.245,139.245
			S98.479,314.183,175.11,314.183c41.197,0,79.814-18.062,106.563-49.626c3.956-4.816,5.075-11.525,2.236-17.46
			c-2.838-5.935-8.429-9.547-14.965-9.547h-33.801v-16.341h95.296c0,0.258,0,0.258,0,0.258l0.258,95.296h-16.341v-21.674
			c0-6.794-3.956-12.643-10.149-15.223c-6.193-2.494-13.245-1.118-17.718,3.698c-29.328,29.845-69.924,47.047-111.379,47.047
			c-86.007,0-155.587-69.666-155.587-155.587S89.447,19.437,175.11,19.437c36.123,0,71.3,12.987,99.252,36.123l1.118,0.86
			c1.118,1.118,2.838,0.86,3.956-0.258c1.118-1.118,0.86-2.838-0.258-3.956l-1.118-1.118
			c-29.07-23.996-65.709-37.241-102.864-37.241c-89.104,0-161.263,72.16-161.263,161.263s72.418,161.263,161.263,161.263
			c42.832,0,85.147-17.718,115.852-48.766c3.096-3.096,7.569-4.214,11.869-2.494c3.956,1.72,6.45,5.677,6.45,10.149v22.018
			c0,2.838,2.838,5.333,5.935,5.333h16.083c2.838,0,5.333-2.236,5.333-5.333v-95.295
			C336.719,220.608,336.117,219.146,334.999,218.028z"/>
	</g>
</g>
<g>
</g>
<g>
</g>
<g>
</g>
<g>
</g>
<g>
</g>
<g>
</g>
<g>
</g>
<g>
</g>
<g>
</g>
<g>
</g>
<g>
</g>
<g>
</g>
<g>
</g>
<g>
</g>
<g>
</g>
</svg>
