<?xml version="1.0" encoding="UTF-8"?>
<!DOCTYPE svg PUBLIC "-//W3C//DTD SVG 1.1//EN" "http://www.w3.org/Graphics/SVG/1.1/DTD/svg11.dtd">
<!-- Creator: CorelDRAW 2020 (64-Bit) -->
<svg xmlns="http://www.w3.org/2000/svg" xml:space="preserve" width="50.9038mm" height="50.9074mm" version="1.1" shape-rendering="geometricPrecision" text-rendering="geometricPrecision" image-rendering="optimizeQuality" fill-rule="evenodd" clip-rule="evenodd"
viewBox="0 0 1213.05 1213.14"
 xmlns:xlink="http://www.w3.org/1999/xlink"
 xmlns:xodm="http://www.corel.com/coreldraw/odm/2003"
 enable-background="new 0 0 512 512">
 <g id="Слой_x0020_1">
  <metadata id="CorelCorpID_0Corel-Layer"/>
  <g id="_2765826826464">
   <g>
    <g id="Page-1_66_">
     <g id="_3067---Click-Button">
      <path id="Shape_335_" fill="#FEFEFE" fill-rule="nonzero" d="M909.85 202.19l-606.57 0c-167.5,0 -303.28,135.79 -303.28,303.29 0,167.5 135.78,303.29 303.28,303.29l422.09 0 -74.04 150.39c-6.98,13.97 -5.29,30.72 4.34,43.01 9.63,12.3 25.49,17.94 40.73,14.51l112.36 -25.72 0 181.75c0,22.33 18.11,40.44 40.44,40.44l121.32 0c22.33,0 40.44,-18.1 40.44,-40.44l-0.14 -181.79 112.62 25.8c15.21,3.39 31.02,-2.26 40.63,-14.54 9.61,-12.27 11.31,-28.97 4.38,-42.93l-97.05 -197.16c114.3,-71.99 167.2,-210.9 129.76,-340.68 -37.44,-129.79 -156.21,-219.17 -291.29,-219.22l0 0zm109.87 749.28c-11.97,-2.66 -24.51,0.25 -34.08,7.93 -9.57,7.68 -15.14,19.29 -15.13,31.56l0 181.75 -121.31 0 0 -181.75c0,-12.29 -5.59,-23.91 -15.18,-31.58 -9.6,-7.68 -22.16,-10.57 -34.15,-7.86l-112.3 25.6 222.29 -451.53 117.27 237.96 0 0.2 0.1 0.12 105.04 213.41 -112.54 -25.8zm76 -260.12c-12.88,12.86 -27.06,24.33 -42.32,34.25l-107.38 -217.98c-6.83,-13.74 -20.86,-22.42 -36.2,-22.42 -15.35,0 -29.37,8.68 -36.2,22.42l-128.33 260.7 -442.01 0c-145.16,0 -262.85,-117.68 -262.85,-262.85 0,-145.16 117.68,-262.85 262.85,-262.85l606.57 0c106.32,-0.01 202.17,64.03 242.86,162.26 40.69,98.22 18.2,211.29 -56.99,286.46l0 0z"/>
      <path id="Shape_334_" fill="#FEFEFE" fill-rule="nonzero" d="M303.28 283.07c-59.04,-0.08 -115.68,23.39 -157.36,65.21 -5.27,5.06 -7.39,12.57 -5.57,19.65 1.83,7.07 7.34,12.61 14.4,14.48 7.06,1.87 14.59,-0.22 19.68,-5.45 34.12,-34.26 80.5,-53.49 128.86,-53.44 11.17,0 20.22,-9.06 20.22,-20.22 0,-11.17 -9.05,-20.22 -20.22,-20.22z"/>
      <path id="Shape_333_" fill="#FEFEFE" fill-rule="nonzero" d="M586.35 20.22l0 101.1c0,11.17 9.05,20.22 20.22,20.22 11.17,0 20.22,-9.05 20.22,-20.22l0 -101.1c0,-11.17 -9.06,-20.22 -20.22,-20.22 -11.16,0 -20.22,9.05 -20.22,20.22z"/>
      <path id="Shape_332_" fill="#FEFEFE" fill-rule="nonzero" d="M438.9 46.36c-7.93,-7.66 -20.55,-7.55 -28.34,0.25 -7.8,7.8 -7.91,20.41 -0.25,28.34l80.88 80.88c7.93,7.66 20.54,7.55 28.34,-0.25 7.8,-7.8 7.91,-20.41 0.25,-28.34l-80.87 -80.88z"/>
      <path id="Shape_331_" fill="#FEFEFE" fill-rule="nonzero" d="M774.25 46.36l-80.88 80.88c-5.25,5.08 -7.36,12.59 -5.51,19.66 1.85,7.07 7.37,12.59 14.44,14.44 7.07,1.85 14.59,-0.26 19.66,-5.51l80.88 -80.88c5.25,-5.08 7.36,-12.59 5.51,-19.66 -1.85,-7.07 -7.37,-12.59 -14.44,-14.44 -7.07,-1.85 -14.59,0.26 -19.66,5.51z"/>
      <path id="Shape_330_" fill="#FEFEFE" fill-rule="nonzero" d="M404.38 283.07l-20.22 0c-11.17,0 -20.22,9.05 -20.22,20.22 0,11.17 9.05,20.22 20.22,20.22l20.22 0c11.17,0 20.22,-9.06 20.22,-20.22 0,-11.17 -9.05,-20.22 -20.22,-20.22z"/>
     </g>
    </g>
   </g>
  </g>
 </g>
</svg>
