<?xml version="1.0" encoding="UTF-8"?>
<!DOCTYPE svg PUBLIC "-//W3C//DTD SVG 1.1//EN" "http://www.w3.org/Graphics/SVG/1.1/DTD/svg11.dtd">
<!-- Creator: CorelDRAW 2020 (64-Bit) -->
<svg xmlns="http://www.w3.org/2000/svg" xml:space="preserve" width="50.8826mm" height="50.9074mm" version="1.1" shape-rendering="geometricPrecision" text-rendering="geometricPrecision" image-rendering="optimizeQuality" fill-rule="evenodd" clip-rule="evenodd"
viewBox="0 0 1387.35 1388.02"
 xmlns:xlink="http://www.w3.org/1999/xlink"
 xmlns:xodm="http://www.corel.com/coreldraw/odm/2003">
 <g id="Слой_x0020_1">
  <metadata id="CorelCorpID_0Corel-Layer"/>
  <g id="_2765826623408">
   <path fill="#FEFEFE" fill-rule="nonzero" d="M532.07 832.81c-127.77,0 -231.34,103.57 -231.34,231.34 0,127.77 103.57,231.34 231.34,231.34 127.77,0 231.34,-103.57 231.34,-231.34 -0.14,-127.71 -103.63,-231.2 -231.34,-231.34zm0 416.41c-102.22,0 -185.07,-82.85 -185.07,-185.07 0,-102.22 82.85,-185.07 185.07,-185.07 102.22,0 185.07,82.85 185.07,185.07 -0.11,102.16 -82.91,184.96 -185.07,185.07zm0 0z"/>
   <path fill="#FEFEFE" fill-rule="nonzero" d="M532.07 994.75c28.25,0 46.27,13.69 46.27,23.13l46.27 0c0,-32.87 -29.12,-59.49 -69.4,-67.08l0 -25.45 -46.27 0 0 25.45c-40.28,7.53 -69.4,34.17 -69.4,67.08 0,38.94 40.64,69.4 92.53,69.4 28.25,0 46.27,13.69 46.27,23.13 0,9.44 -18.02,23.13 -46.27,23.13 -28.25,0 -46.27,-13.69 -46.27,-23.13l-46.27 0c0,32.87 29.12,59.5 69.4,67.09l0 25.45 46.27 0 0 -25.45c40.28,-7.53 69.4,-34.17 69.4,-67.09 0,-38.94 -40.64,-69.4 -92.54,-69.4 -28.25,0 -46.27,-13.69 -46.27,-23.13 0,-9.44 18.02,-23.13 46.27,-23.13l0 0zm0 0z"/>
   <path fill="#FEFEFE" fill-rule="nonzero" d="M1179.82 1341.75l-971.62 0 0 -555.21 370.14 0c38.33,0 69.4,-31.07 69.4,-69.4l0 -578.34 254.47 0 0 277.6 277.6 0 0 323.87 46.27 0 0 -356.59 -291.16 -291.16 -287.18 0 0 -23.13c0,-38.33 -31.07,-69.4 -69.4,-69.4l-508.94 0c-38.33,0 -69.4,31.07 -69.4,69.4l0 647.74c0,38.32 31.07,69.4 69.4,69.4l92.53 0 0 601.48 1064.15 0 0 -323.87 -46.27 0 0 277.6zm-231.34 -1170.24l198.62 198.62 -198.62 0 0 -198.62zm-902.21 545.63l0 -647.74c0,-12.78 10.36,-23.13 23.13,-23.13l508.94 0c12.78,0 23.13,10.36 23.13,23.13l0 647.74c0,12.77 -10.36,23.13 -23.13,23.13l-508.94 0c-12.78,0 -23.13,-10.36 -23.13,-23.13zm0 0z"/>
   <path fill="#FEFEFE" fill-rule="nonzero" d="M740.28 578.34l46.27 0 0 46.27 -46.27 0 0 -46.27zm0 0z"/>
   <path fill="#FEFEFE" fill-rule="nonzero" d="M832.81 578.34l277.6 0 0 46.27 -277.6 0 0 -46.27zm0 0z"/>
   <path fill="#FEFEFE" fill-rule="nonzero" d="M740.28 485.81l46.27 0 0 46.27 -46.27 0 0 -46.27zm0 0z"/>
   <path fill="#FEFEFE" fill-rule="nonzero" d="M832.81 485.81l277.6 0 0 46.27 -277.6 0 0 -46.27zm0 0z"/>
   <path fill="#FEFEFE" fill-rule="nonzero" d="M740.28 670.88l46.27 0 0 46.27 -46.27 0 0 -46.27zm0 0z"/>
   <path fill="#FEFEFE" fill-rule="nonzero" d="M832.81 670.88l277.6 0 0 46.27 -277.6 0 0 -46.27zm0 0z"/>
   <path fill="#FEFEFE" fill-rule="nonzero" d="M740.28 763.41l46.27 0 0 46.27 -46.27 0 0 -46.27zm0 0z"/>
   <path fill="#FEFEFE" fill-rule="nonzero" d="M832.81 763.41l277.6 0 0 46.27 -277.6 0 0 -46.27zm0 0z"/>
   <path fill="#FEFEFE" fill-rule="nonzero" d="M578.34 69.4l-508.94 0 0 161.94 508.94 0 0 -161.94zm-46.27 115.67l-416.41 0 0 -69.4 416.41 0 0 69.4zm0 0z"/>
   <path fill="#FEFEFE" fill-rule="nonzero" d="M185.07 254.47l-46.27 0c-25.55,0 -46.27,20.72 -46.27,46.27l0 46.27c0,25.55 20.72,46.27 46.27,46.27l46.27 0c25.55,0 46.27,-20.72 46.27,-46.27l0 -46.27c0,-25.55 -20.72,-46.27 -46.27,-46.27l0 -0zm-46.27 92.54l0 -46.27 46.27 -0 0 46.27 -46.27 0zm0 0z"/>
   <path fill="#FEFEFE" fill-rule="nonzero" d="M347.01 254.47l-46.27 0c-25.55,0 -46.27,20.72 -46.27,46.27l0 46.27c0,25.55 20.72,46.27 46.27,46.27l46.27 0c25.55,0 46.27,-20.72 46.27,-46.27l0 -46.27c0,-25.55 -20.72,-46.27 -46.27,-46.27l0 -0zm-46.27 92.54l0 -46.27 46.27 -0 0 46.27 -46.27 0zm0 0z"/>
   <path fill="#FEFEFE" fill-rule="nonzero" d="M508.94 254.47l-46.27 0c-25.55,0 -46.27,20.72 -46.27,46.27l0 46.27c0,25.55 20.72,46.27 46.27,46.27l46.27 0c25.55,0 46.27,-20.72 46.27,-46.27l0 -46.27c0,-25.55 -20.72,-46.27 -46.27,-46.27l0 -0zm-46.27 92.54l0 -46.27 46.27 -0 0 46.27 -46.27 0zm0 0z"/>
   <path fill="#FEFEFE" fill-rule="nonzero" d="M185.07 416.41l-46.27 0c-25.55,0 -46.27,20.72 -46.27,46.27l0 46.27c0,25.55 20.72,46.27 46.27,46.27l46.27 0c25.55,0 46.27,-20.72 46.27,-46.27l0 -46.27c0,-25.55 -20.72,-46.27 -46.27,-46.27l0 -0zm-46.27 92.53l0 -46.27 46.27 0 0 46.27 -46.27 0zm0 0z"/>
   <path fill="#FEFEFE" fill-rule="nonzero" d="M347.01 416.41l-46.27 0c-25.55,0 -46.27,20.72 -46.27,46.27l0 46.27c0,25.55 20.72,46.27 46.27,46.27l46.27 0c25.55,0 46.27,-20.72 46.27,-46.27l0 -46.27c0,-25.55 -20.72,-46.27 -46.27,-46.27l0 -0zm-46.27 92.53l0 -46.27 46.27 0 0 46.27 -46.27 0zm0 0z"/>
   <path fill="#FEFEFE" fill-rule="nonzero" d="M508.94 416.41l-46.27 0c-25.55,0 -46.27,20.72 -46.27,46.27l0 46.27c0,25.55 20.72,46.27 46.27,46.27l46.27 0c25.55,0 46.27,-20.72 46.27,-46.27l0 -46.27c0,-25.55 -20.72,-46.27 -46.27,-46.27l0 -0zm-46.27 92.53l0 -46.27 46.27 0 0 46.27 -46.27 0zm0 0z"/>
   <path fill="#FEFEFE" fill-rule="nonzero" d="M185.07 578.34l-46.27 0c-25.55,0 -46.27,20.72 -46.27,46.27l0 46.27c0,25.55 20.72,46.27 46.27,46.27l46.27 0c25.55,0 46.27,-20.72 46.27,-46.27l0 -46.27c0,-25.55 -20.72,-46.27 -46.27,-46.27l0 -0zm-46.27 92.54l0 -46.27 46.27 -0 0 46.27 -46.27 0zm0 0z"/>
   <path fill="#FEFEFE" fill-rule="nonzero" d="M347.01 578.34l-46.27 0c-25.55,0 -46.27,20.72 -46.27,46.27l0 46.27c0,25.55 20.72,46.27 46.27,46.27l46.27 0c25.55,0 46.27,-20.72 46.27,-46.27l0 -46.27c0,-25.55 -20.72,-46.27 -46.27,-46.27l0 -0zm-46.27 92.54l0 -46.27 46.27 -0 0 46.27 -46.27 0zm0 0z"/>
   <path fill="#FEFEFE" fill-rule="nonzero" d="M508.94 578.34l-46.27 0c-25.55,0 -46.27,20.72 -46.27,46.27l0 46.27c0,25.55 20.72,46.27 46.27,46.27l46.27 0c25.55,0 46.27,-20.72 46.27,-46.27l0 -46.27c0,-25.55 -20.72,-46.27 -46.27,-46.27l0 -0zm-46.27 92.54l0 -46.27 46.27 -0 0 46.27 -46.27 0zm0 0z"/>
   <path fill="#FEFEFE" fill-rule="nonzero" d="M1367.01 738.16c-27.46,-26.22 -70.67,-26.22 -98.13,0l-396.58 396.57c-1.92,1.94 -3.49,4.2 -4.63,6.69l-55.85 121.27c-4.04,8.79 -2.17,19.17 4.68,26 6.83,6.85 17.21,8.71 26,4.68l121.27 -55.85c2.49,-1.14 4.74,-2.7 6.69,-4.63l396.55 -396.58c27.11,-27.1 27.11,-71.05 0,-98.15zm-426.37 459.06l-60.61 27.92 27.92 -60.61 295.69 -295.71 32.71 32.71 -295.71 295.69zm328.49 -328.5l-32.71 -32.7 16.2 -16.2 32.71 32.71 -16.2 16.18zm65.24 -65.23l-16.36 16.36 -32.71 -32.71 16.38 -16.36c9.14,-8.74 23.54,-8.74 32.69,0 9.02,9.04 9.02,23.67 0,32.71zm0 0z"/>
  </g>
 </g>
</svg>
