<?xml version="1.0" encoding="UTF-8"?>
<!DOCTYPE svg PUBLIC "-//W3C//DTD SVG 1.1//EN" "http://www.w3.org/Graphics/SVG/1.1/DTD/svg11.dtd">
<!-- Creator: CorelDRAW 2020 (64-Bit) -->
<svg xmlns="http://www.w3.org/2000/svg" xml:space="preserve" width="50.8mm" height="50.8mm" version="1.1" shape-rendering="geometricPrecision" text-rendering="geometricPrecision" image-rendering="optimizeQuality" fill-rule="evenodd" clip-rule="evenodd"
viewBox="0 0 9084.65 9084.65"
 xmlns:xlink="http://www.w3.org/1999/xlink"
 xmlns:xodm="http://www.corel.com/coreldraw/odm/2003"
 enable-background="new 0 0 512 512">
 <g id="Слой_x0020_1">
  <metadata id="CorelCorpID_0Corel-Layer"/>
  <g id="_2765825916688">
   <g>
    <path fill="#FEFEFE" fill-rule="nonzero" d="M8374.92 2838.95l-567.81 0 0 -1419.48c0,-156.53 -127.36,-283.9 -283.88,-283.9l-567.81 0 0 -709.73c0,-234.81 -191.05,-425.85 -425.83,-425.85l-3974.53 0c-234.79,0 -425.83,191.05 -425.83,425.85l0 709.73 -567.81 0c-156.53,0 -283.88,127.36 -283.88,283.9l0 1419.48 -567.81 0c-391.34,0 -709.73,318.39 -709.73,709.73l0 3122.87c0,391.34 318.39,709.73 709.73,709.73l1419.49 0 0 1277.52c0,234.81 191.05,425.85 425.83,425.85l3974.53 0c234.79,0 425.83,-191.05 425.83,-425.85l0 -1277.52 1419.49 0c391.34,0 709.73,-318.39 709.73,-709.73l0 -3122.87c0,-391.36 -318.39,-709.73 -709.73,-709.73zm-851.69 -1419.48l0 1419.48 -567.81 0 0 -1419.48 567.81 0zm-5110.13 -993.62c0,-78.27 63.68,-141.96 141.96,-141.96l3974.53 0c78.27,0 141.96,63.68 141.96,141.96l0 2413.1 -4258.45 0c0,-29.01 0,-2310.4 0,-2413.1zm-851.69 993.62l567.81 0 0 1419.48 -567.81 0 0 -1419.48zm5110.13 7239.32c0,78.27 -63.68,141.96 -141.96,141.96l-3974.53 0c-78.27,0 -141.96,-63.68 -141.96,-141.96l0 -2413.1 4258.45 0 0 2413.1zm2129.21 -1987.25c0,234.79 -191.05,425.83 -425.83,425.83l-1419.49 0 0 -851.69 283.91 0c78.38,0 141.94,-63.56 141.94,-141.96 0,-78.38 -63.56,-141.94 -141.94,-141.94 -508.49,0 -5161.28,0 -5394.01,0 -78.4,0 -141.96,63.56 -141.96,141.94 0,78.4 63.56,141.96 141.96,141.96l283.9 0 0 851.69 -1419.49 0c-234.79,0 -425.83,-191.05 -425.83,-425.83l0 -3122.87c0,-234.79 191.05,-425.83 425.83,-425.83l7665.19 0c234.79,0 425.83,191.05 425.83,425.83l0 3122.87z"/>
    <path fill="#FEFEFE" fill-rule="nonzero" d="M8091.02 3406.74c-234.81,0 -425.85,191.05 -425.85,425.85 0,234.79 191.05,425.83 425.85,425.83 234.79,0 425.83,-191.05 425.83,-425.83 0,-234.81 -191.05,-425.85 -425.83,-425.85zm0 567.79c-78.27,0 -141.96,-63.68 -141.96,-141.96 0,-78.26 63.68,-141.94 141.96,-141.94 78.26,0 141.94,63.68 141.94,141.94 0,78.27 -63.68,141.96 -141.94,141.96z"/>
    <path fill="#FEFEFE" fill-rule="nonzero" d="M6955.43 3406.74c-234.79,0 -425.83,191.05 -425.83,425.85 0,234.79 191.05,425.83 425.83,425.83 234.81,0 425.85,-191.05 425.85,-425.83 0,-234.81 -191.05,-425.85 -425.85,-425.85zm0 567.79c-78.26,0 -141.94,-63.68 -141.94,-141.96 0,-78.26 63.68,-141.94 141.94,-141.94 78.27,0 141.96,63.68 141.96,141.94 0,78.27 -63.68,141.96 -141.96,141.96z"/>
    <path fill="#FEFEFE" fill-rule="nonzero" d="M6103.74 6671.55l-2980.89 0c-78.4,0 -141.96,63.54 -141.96,141.94 0,78.4 63.56,141.96 141.96,141.96l2980.89 -0.02c78.4,0 141.96,-63.54 141.96,-141.94 0,-78.4 -63.56,-141.96 -141.96,-141.96l0 0.02z"/>
    <path fill="#FEFEFE" fill-rule="nonzero" d="M6103.74 7381.28l-2980.89 0c-78.4,0 -141.96,63.56 -141.96,141.96 0,78.38 63.56,141.94 141.96,141.94l2980.89 0c78.4,0 141.96,-63.56 141.96,-141.94 0,-78.4 -63.56,-141.96 -141.96,-141.96z"/>
    <path fill="#FEFEFE" fill-rule="nonzero" d="M6103.74 8091.02l-2980.89 0c-78.4,0 -141.96,63.56 -141.96,141.94 0,78.4 63.56,141.96 141.96,141.96l2980.89 0c78.4,0 141.96,-63.56 141.96,-141.96 0,-78.4 -63.56,-141.96 -141.96,-141.96l0 0.02z"/>
   </g>
  </g>
 </g>
</svg>
