<?xml version="1.0" encoding="UTF-8"?>
<!DOCTYPE svg PUBLIC "-//W3C//DTD SVG 1.1//EN" "http://www.w3.org/Graphics/SVG/1.1/DTD/svg11.dtd">
<!-- Creator: CorelDRAW 2020 (64-Bit) -->
<svg xmlns="http://www.w3.org/2000/svg" xml:space="preserve" width="41.4716mm" height="40.5808mm" version="1.1" shape-rendering="geometricPrecision" text-rendering="geometricPrecision" image-rendering="optimizeQuality" fill-rule="evenodd" clip-rule="evenodd"
viewBox="0 0 4147.12 4058.04"
 xmlns:xlink="http://www.w3.org/1999/xlink"
 xmlns:xodm="http://www.corel.com/coreldraw/odm/2003">
 <g id="Слой_x0020_1">
  <metadata id="CorelCorpID_0Corel-Layer"/>
  <g id="_2765826610304">
   <g>
    <g>
     <path fill="#FEFEFE" fill-rule="nonzero" d="M3077.61 1436.02l-100.62 -99.57c-53.02,-53.02 -141.76,-53.02 -194.8,0l-957.69 957.7 -577.87 -577.87c-53.02,-53.02 -141.76,-53.02 -194.8,0l-99.56 99.57c-24.89,24.88 -38.95,60.59 -38.95,95.23 0,34.64 14.06,71.43 38.95,95.24l773.73 773.73c24.89,24.88 60.6,38.95 95.24,38.95 38.95,0 74.67,-17.31 99.56,-42.2 3.25,0 7.57,-3.25 7.57,-7.57l85.49 -81.16 10.82 -7.57 1052.92 -1052.93c53.03,-53.05 53.03,-138.53 0.01,-191.55zm-54.09 134.17l-1052.93 1052.93 -99.56 95.23c-3.25,0 -7.58,3.25 -7.58,7.58 -10.82,10.82 -28.13,17.31 -42.2,17.31 -17.31,0 -35.7,-7.57 -46.53,-17.31l-773.73 -773.73c-10.82,-10.82 -17.31,-28.14 -17.31,-46.53 0,-18.4 7.57,-35.71 17.31,-46.53l99.57 -99.56c10.82,-10.82 28.13,-17.32 46.53,-17.32 18.39,0 35.7,7.58 49.77,14.07l602.75 602.75c14.07,14.07 35.71,14.07 49.78,0l982.58 -982.58c24.89,-24.89 67.1,-24.89 91.99,0l99.56 99.56c24.89,27.04 24.89,69.24 0,94.13z"/>
    </g>
   </g>
   <g>
    <g>
     <path fill="#FEFEFE" fill-rule="nonzero" d="M4119.71 2507.08c1.96,2.54 3.86,5.13 5.68,7.77l0 -7.77 -5.68 0zm23.23 1365.41c-1.8,4.64 -3.8,9.18 -5.99,13.61l2.51 0 7.66 -9.43 -4.18 -4.18z"/>
    </g>
   </g>
   <g>
    <g>
     <path fill="#FEFEFE" fill-rule="nonzero" d="M4039.67 2569.02c-8.67,-5.41 -23.82,-23.81 -51.96,-23.81l-1202.27 0c-14.07,0 -31.38,3.25 -49.78,21.64 -14.06,10.83 -21.64,31.38 -21.64,49.78l0 202.36c0,38.95 31.38,71.43 71.43,71.43l425.29 0c53.02,0 102.81,28.13 124.45,77.92 24.89,49.77 17.32,106.05 -17.31,145.01 -322.48,383.09 -791.04,599.5 -1287.75,599.5 -925.23,0 -1681.65,-755.34 -1681.65,-1681.65 0,-926.31 755.31,-1681.66 1681.62,-1681.66 691.5,0 1323.48,436.11 1571.27,1085.39 28.13,63.86 91.99,110.39 163.4,110.39 21.65,0 38.96,-3.25 60.6,-10.82 42.2,-17.32 77.92,-49.78 95.23,-91.99 17.32,-42.21 21.65,-88.73 3.25,-130.94 -81.16,-208.86 -191.54,-400.41 -336.55,-574.61 -10.82,-14.06 -35.7,-17.31 -49.77,-3.25 -14.07,10.83 -17.31,35.71 -3.25,49.78 138.52,166.65 244.56,350.63 322.48,552.98 7.58,24.88 7.58,53.02 -3.24,77.92 -10.83,24.88 -31.38,42.2 -56.27,53.02 -53.02,17.31 -113.62,-10.82 -130.94,-60.6 -255.4,-677.42 -915.5,-1131.93 -1638.37,-1131.93 -965.28,0 -1751.98,787.8 -1751.98,1751.98 0,964.19 787.81,1751.99 1751.98,1751.99 518.35,0 1004.22,-227.26 1340.78,-624.4 49.78,-60.59 63.86,-145.01 28.14,-219.68 -35.71,-74.68 -106.06,-120.12 -188.3,-120.12l-425.28 0 0 -205.61 1199.02 0c0,3.25 0,3.25 0,3.25l3.24 1199.02 -205.6 0 0 -272.71c0,-85.48 -49.78,-159.08 -127.7,-191.54 -77.92,-31.38 -166.65,-14.06 -222.93,46.53 -369.01,375.52 -879.78,591.94 -1401.38,591.94 -1082.14,0 -1957.6,-876.53 -1957.6,-1957.6 0,-1081.06 879.79,-1957.6 1957.6,-1957.6 454.5,0 897.1,163.41 1248.79,454.51l14.07 10.82c14.07,14.07 35.71,10.82 49.77,-3.25 14.07,-14.06 10.83,-35.71 -3.24,-49.77l-14.07 -14.07c-365.76,-301.92 -826.75,-468.57 -1294.24,-468.57 -1121.11,0 -2029.02,907.92 -2029.02,2029.02 0,1121.09 911.17,2029.01 2029.02,2029.01 538.91,0 1071.32,-222.93 1457.66,-613.57 38.95,-38.95 95.23,-53.02 149.33,-31.38 49.78,21.64 81.16,71.43 81.16,127.7l0 277.03c0,35.71 35.71,67.1 74.68,67.1l202.36 0c35.71,0 67.1,-28.13 67.1,-67.1l0 -1199.01c0.01,-17.32 -7.56,-35.72 -21.63,-49.78z"/>
    </g>
   </g>
  </g>
  <g id="_2765826608576">
  </g>
  <g id="_2765826613088">
  </g>
  <g id="_2765826611744">
  </g>
  <g id="_2765826612224">
  </g>
  <g id="_2765826613376">
  </g>
  <g id="_2765826615152">
  </g>
  <g id="_2765826615296">
  </g>
  <g id="_2765826614096">
  </g>
  <g id="_2765826613856">
  </g>
  <g id="_2765826615008">
  </g>
  <g id="_2765826615920">
  </g>
  <g id="_2765826618128">
  </g>
  <g id="_2765826621632">
  </g>
  <g id="_2765826621584">
  </g>
  <g id="_2765826624752">
  </g>
 </g>
</svg>
