<?xml version="1.0" encoding="UTF-8"?>
<!DOCTYPE svg PUBLIC "-//W3C//DTD SVG 1.1//EN" "http://www.w3.org/Graphics/SVG/1.1/DTD/svg11.dtd">
<!-- Creator: CorelDRAW 2020 (64-Bit) -->
<svg xmlns="http://www.w3.org/2000/svg" xml:space="preserve" width="63.4782mm" height="40.1542mm" version="1.1" shape-rendering="geometricPrecision" text-rendering="geometricPrecision" image-rendering="optimizeQuality" fill-rule="evenodd" clip-rule="evenodd"
viewBox="0 0 2340.53 1480.54"
 xmlns:xlink="http://www.w3.org/1999/xlink"
 xmlns:xodm="http://www.corel.com/coreldraw/odm/2003">
 <g id="Слой_x0020_1">
  <metadata id="CorelCorpID_0Corel-Layer"/>
  <g id="_2763869134144">
   <g>
    <g>
     <path fill="#FEFEFE" fill-rule="nonzero" d="M2176.69 627.66l-60.61 -242.44c16.57,-3.52 29.01,-18.22 29.01,-35.84l0 -39.09c0,-84.87 -69.05,-153.92 -153.92,-153.92l-276.07 0 0 -80.63c0,-41.76 -33.98,-75.74 -75.74,-75.74l-1407.26 0c-41.76,0 -75.74,33.97 -75.74,75.74l0 664.54c0,20.24 16.41,36.65 36.65,36.65 20.24,0 36.65,-16.41 36.65,-36.65l0 -664.54c0,-1.35 1.09,-2.44 2.44,-2.44l1407.25 0c1.35,0 2.44,1.09 2.44,2.44l0 664.55c0,20.24 16.41,36.65 36.65,36.65 20.24,0 36.65,-16.41 36.65,-36.65l0 -41.54 432.31 0c0.04,0 0.07,0.01 0.1,0.01 0.04,0 0.07,-0 0.1,-0 53.19,0.04 98.37,34.95 113.88,83.06l-113.95 0c-20.24,0 -36.65,16.41 -36.65,36.65l0 78.18c0,63.32 51.51,114.83 114.83,114.83l41.54 0 0 161.25 -95.83 0c-31.48,-90.89 -117.88,-156.36 -219.34,-156.36 -101.46,0 -187.87,65.47 -219.34,156.36l-17.65 0 0 -276.08c0,-20.24 -16.41,-36.65 -36.65,-36.65 -20.24,0 -36.65,16.41 -36.65,36.65l0 276.07 -760.35 0c-31.48,-90.89 -117.88,-156.36 -219.34,-156.36 -101.46,0 -187.87,65.47 -219.34,156.36l-210.65 0c-1.35,0 -2.44,-1.1 -2.44,-2.44l0 -80.63 158.81 0c20.24,0 36.65,-16.41 36.65,-36.65 0,-20.24 -16.4,-36.65 -36.65,-36.65l-351.81 0c-20.24,0 -36.65,16.41 -36.65,36.65 0,20.24 16.41,36.65 36.65,36.65l119.71 0 0 80.63c0,41.76 33.98,75.74 75.74,75.74l197.96 0c-0.01,0.81 -0.06,1.62 -0.06,2.44 0,127.98 104.12,232.1 232.1,232.1 127.98,0 232.1,-104.12 232.1,-232.1 0,-0.82 -0.06,-1.63 -0.06,-2.44l825.91 0c-0.01,0.81 -0.06,1.62 -0.06,2.44 0,127.98 104.12,232.1 232.1,232.1 127.97,0 232.1,-104.12 232.1,-232.1 0,-0.82 -0.06,-1.63 -0.07,-2.44l119.78 0c20.24,0 36.65,-16.41 36.65,-36.65l0 -390.9c0,-96.51 -71.2,-176.7 -163.84,-190.8zm-461.6 -397.99l276.08 0c44.46,0 80.62,36.17 80.62,80.63l0 2.44 -356.7 0 0 -83.07zm0 395.79l0 -239.43 325.64 -0 59.86 239.43 -385.5 0zm-1053 781.81c-87.57,0 -158.81,-71.24 -158.81,-158.81 0,-87.57 71.24,-158.8 158.81,-158.8 87.56,0 158.81,71.24 158.81,158.8 0,87.57 -71.24,158.81 -158.81,158.81zm1289.98 0c-87.56,0 -158.81,-71.24 -158.81,-158.81 0,-87.57 71.24,-158.8 158.81,-158.8 87.57,0 158.81,71.24 158.81,158.8 0,87.57 -71.24,158.81 -158.81,158.81zm315.17 -469.09l-41.54 0c-22.9,0 -41.54,-18.63 -41.54,-41.54l0 -41.54 83.06 0 0 83.07 0.01 0z"/>
    </g>
   </g>
   <g>
    <g>
     <path fill="#FEFEFE" fill-rule="nonzero" d="M662.09 1172.72c-41.76,0 -75.74,33.98 -75.74,75.74 0,41.76 33.98,75.74 75.74,75.74 41.76,0 75.74,-33.97 75.74,-75.74 0,-41.77 -33.97,-75.74 -75.74,-75.74z"/>
    </g>
   </g>
   <g>
    <g>
     <path fill="#FEFEFE" fill-rule="nonzero" d="M1952.08 1172.72c-41.76,0 -75.74,33.98 -75.74,75.74 0,41.76 33.97,75.74 75.74,75.74 41.76,0 75.74,-33.97 75.74,-75.74 0,-41.77 -33.97,-75.74 -75.74,-75.74z"/>
    </g>
   </g>
   <g>
    <g>
     <path fill="#FEFEFE" fill-rule="nonzero" d="M1522.08 1016.36l-547.26 0c-20.24,0 -36.65,16.41 -36.65,36.65 0,20.24 16.4,36.65 36.65,36.65l547.26 0c20.24,0 36.65,-16.41 36.65,-36.65 0,-20.24 -16.41,-36.65 -36.65,-36.65z"/>
    </g>
   </g>
   <g>
    <g>
     <path fill="#FEFEFE" fill-rule="nonzero" d="M583.91 859.99l-469.09 0c-20.24,0 -36.65,16.41 -36.65,36.65 0,20.24 16.41,36.65 36.65,36.65l469.09 0c20.24,0 36.65,-16.41 36.65,-36.65 0,-20.24 -16.41,-36.65 -36.65,-36.65z"/>
    </g>
   </g>
   <g>
    <g>
     <path fill="#FEFEFE" fill-rule="nonzero" d="M1274.36 362.55c-14.31,-14.31 -37.52,-14.31 -51.82,0l-325.9 325.9 -169.54 -169.54c-14.31,-14.31 -37.52,-14.31 -51.83,0 -14.31,14.31 -14.31,37.51 0,51.82l195.45 195.45c7.16,7.16 16.54,10.73 25.91,10.73 9.38,0 18.76,-3.57 25.91,-10.73l351.81 -351.81c14.31,-14.32 14.31,-37.52 0,-51.83z"/>
    </g>
   </g>
   <g>
   </g>
   <g>
   </g>
   <g>
   </g>
   <g>
   </g>
   <g>
   </g>
   <g>
   </g>
   <g>
   </g>
   <g>
   </g>
   <g>
   </g>
   <g>
   </g>
   <g>
   </g>
   <g>
   </g>
   <g>
   </g>
   <g>
   </g>
   <g>
   </g>
  </g>
 </g>
</svg>
