<?xml version="1.0" encoding="UTF-8"?>
<!DOCTYPE svg PUBLIC "-//W3C//DTD SVG 1.1//EN" "http://www.w3.org/Graphics/SVG/1.1/DTD/svg11.dtd">
<!-- Creator: CorelDRAW 2020 (64-Bit) -->
<svg xmlns="http://www.w3.org/2000/svg" xml:space="preserve" width="32.0688mm" height="39.4548mm" version="1.1" shape-rendering="geometricPrecision" text-rendering="geometricPrecision" image-rendering="optimizeQuality" fill-rule="evenodd" clip-rule="evenodd"
viewBox="0 0 2918.68 3590.9"
 xmlns:xlink="http://www.w3.org/1999/xlink"
 xmlns:xodm="http://www.corel.com/coreldraw/odm/2003">
 <g id="Слой_x0020_1">
  <metadata id="CorelCorpID_0Corel-Layer"/>
  <g id="_2763874132416">
   <g>
    <g>
     <g>
      <path fill="#FEFEFE" fill-rule="nonzero" d="M1881.61 824.89l4.2 0c0.01,0 -3.26,-8.21 -4.2,0z"/>
      <path fill="#FEFEFE" fill-rule="nonzero" d="M868.44 824.89l4.2 0c-0.94,-8.21 -4.2,0 -4.2,0z"/>
     </g>
    </g>
   </g>
   <g>
    <g>
     <path fill="#FEFEFE" fill-rule="nonzero" d="M2893.57 1083.21c-23.55,-37.59 -60.31,-63.75 -103.53,-73.68l-227.63 -52.31 105.1 -29.42c87.09,-24.37 139.55,-117.39 115.14,-204.63 -24.38,-87.09 -117.38,-139.54 -204.64,-115.14l-490.07 137.17c-12.76,-23.22 -30.91,-43.09 -52.76,-57.88 99.46,-185.09 242.75,-499.19 242.75,-634.32 0,-32.96 -31.15,-58.46 -63.47,-51.94 -194.49,39.29 -375.83,57.42 -554.14,55.47 -183.29,-2.01 -411.41,-24.77 -554.73,-55.35 -44.31,-9.46 -79.86,40.13 -56.5,79.08 34.93,58.21 56.33,119.76 68.09,181.8 -179.89,5.52 -366.44,-16.28 -507.63,-86.89 -38.03,-19.02 -82.92,14.26 -75.97,56.11 44.41,266.42 134,422.63 223.82,540.64l-1.99 0c-91.54,0 -166.03,74.48 -166.03,166.03 0,84.2 63.02,153.9 144.35,164.57 -59.29,99.3 -143.96,193.51 -232.91,292.37 -189.18,210.24 -403.6,448.53 -475.74,833.28 -34.52,184.09 -33.37,356.35 3.43,511.99 34.36,145.31 99.79,276.83 194.46,390.91 125.67,151.44 298.34,268.93 513.19,349.25 193.54,72.35 415.18,110.58 640.99,110.58 225.81,0 447.47,-38.24 641,-110.58 214.85,-80.32 387.52,-197.83 513.19,-349.25 94.67,-114.08 160.1,-245.6 194.46,-390.91 36.79,-155.64 37.95,-327.9 3.43,-511.99 -72.15,-384.75 -286.56,-623.04 -475.73,-833.27 -64.22,-71.38 -125.32,-139.43 -176.55,-208.5l638.77 146.77c67.68,15.55 139.79,-14.05 177.17,-72.54 34.21,-53.53 34.42,-123.63 0.72,-177.41zm-1234.42 -920.71c163.15,1.77 328.27,-12.49 502.7,-43.57 -31.98,130.75 -134.68,363.3 -232.09,540.45 -67.5,5.09 -123.85,50.69 -144.74,112.52l-147.11 0c-3.32,-7.16 -7.01,-15.01 -11.11,-23.73 -45.49,-96.7 -140.16,-297.92 -140.16,-469.1 0,-32.91 -31.07,-58.42 -63.38,-51.96 -61.66,12.34 -129.5,22.32 -200.09,28.58 -7.4,-44.21 -18.88,-88.5 -35.57,-132.05 142.37,22.03 321.71,37.21 471.56,38.85zm343.24 662.38l0 226.09c0,33.11 -26.94,60.06 -60.06,60.06 -33.11,0 -60.05,-26.94 -60.05,-60.06l0 -226.09c0,-33.12 26.94,-60.06 60.05,-60.06 33.12,0 60.06,26.95 60.06,60.06zm-1345.3 -515.54c132.47,45.22 295.43,65.27 471.42,59.08l105.02 -6.63c49.53,-4.54 99.79,-11.09 150.42,-19.65 16.53,163.93 91.41,332.38 136.92,429.77l-352.83 0 -111.47 0 -163.94 0c-1.18,-1.86 -2.47,-3.69 -3.9,-5.42 -88.64,-106.62 -178.57,-229.95 -231.64,-457.14zm1517.59 1156.42c179.86,199.87 383.69,426.41 450.36,781.91 61.35,327.19 2.38,601.63 -175.28,815.69 -219.06,263.96 -620.04,421.54 -1072.62,421.54 -452.58,0 -853.57,-157.59 -1072.62,-421.54 -177.66,-214.06 -236.62,-488.49 -175.29,-815.69 66.67,-355.52 270.52,-582.06 450.37,-781.92 107.53,-119.52 209.13,-232.57 274.25,-361.79l129.41 0c29.27,0 52.99,-23.73 52.99,-52.99 0,-29.27 -23.73,-52.99 -52.99,-52.99l-227.85 0c-33.12,0 -60.06,-26.94 -60.06,-60.06 0,-33.12 26.94,-60.05 60.06,-60.05l1020.9 0 0 120.1 -540.48 0c-29.28,0 -52.99,23.73 -52.99,52.99 0,29.26 23.72,52.99 52.99,52.99l549.2 0c22.17,65.63 84.29,113.04 157.32,113.04 8.44,0 16.71,-0.64 24.82,-1.86 59.14,85.54 131.22,165.83 207.53,250.62zm-66.3 -616.25l498.2 -139.43c31.55,-8.85 65.21,10.17 74.02,41.65 8.83,31.55 -10.15,65.2 -41.65,74.01l-284.72 79.69c-2.32,0.65 -4.54,1.49 -6.69,2.42l-239.16 -54.94 0 -3.39zm703.02 335.26c-7.42,32.27 -39.65,52.51 -71.98,45.08l-634.37 -145.76c2.18,-10.7 3.32,-21.79 3.32,-33.14l0 -89.34 657.94 151.17c31.89,7.33 52.41,40.06 45.09,71.98z"/>
    </g>
   </g>
   <g>
    <g>
     <path fill="#FEFEFE" fill-rule="nonzero" d="M1716.25 2177.86c75.97,0 137.78,-61.8 137.78,-137.77l0 -84.78c0,-198.26 -147.88,-362.61 -339.13,-388.55l0 -91.88c0,-75.97 -61.8,-137.78 -137.77,-137.78 -75.97,0 -137.78,61.8 -137.78,137.78l0 98.89c-196.36,43.8 -339.13,218.36 -339.13,423.92 0,239.58 194.92,434.51 434.51,434.51l84.77 0c87.65,0 158.97,71.31 158.97,158.97 0,87.65 -71.32,158.96 -158.97,158.96l-127.17 0c-64.28,0 -116.58,-52.3 -116.58,-116.58 0,-75.96 -61.8,-137.78 -137.78,-137.78 -75.96,0 -137.77,61.81 -137.77,137.78 0,198.25 147.87,362.61 339.12,388.54l0 91.89c0,75.96 61.81,137.78 137.78,137.78 75.96,0 137.78,-61.81 137.78,-137.78l0 -98.89c196.35,-43.8 339.12,-218.36 339.12,-423.92 0,-239.59 -194.91,-434.51 -434.51,-434.51l-84.78 -0.01c-87.65,0 -158.96,-71.3 -158.96,-158.96 0,-87.66 71.31,-158.96 158.96,-158.96l127.18 0c64.28,0 116.57,52.3 116.57,116.58l0 84.78c0,75.96 61.82,137.77 137.78,137.77zm-254.34 -445.1l-127.17 0c-146.09,0 -264.94,118.84 -264.94,264.94 0,146.09 118.84,264.94 264.94,264.94l84.78 0c181.16,0 328.53,147.39 328.53,328.54 0,167.61 -125.53,307.94 -291.98,326.44 -26.84,2.99 -47.14,25.67 -47.14,52.67l0 143.71c0,17.53 -14.26,31.79 -31.79,31.79 -17.52,0 -31.79,-14.26 -31.79,-31.79l0 -141.3c0,-29.27 -23.72,-52.99 -52.99,-52.99 -157.78,0 -286.14,-128.36 -286.14,-286.14 0,-17.53 14.27,-31.79 31.79,-31.79 17.53,0 31.79,14.26 31.79,31.79 0,122.71 99.84,222.55 222.55,222.55l127.18 0c146.08,0 264.94,-118.85 264.94,-264.95 0,-146.08 -118.85,-264.94 -264.94,-264.94l-84.78 0c-181.16,0 -328.54,-147.38 -328.54,-328.53 0,-167.62 125.53,-307.95 291.99,-326.45 26.83,-2.98 47.14,-25.67 47.14,-52.66l0 -143.72c0,-17.52 14.27,-31.79 31.79,-31.79 17.53,0 31.79,14.27 31.79,31.79l0 141.31c0,29.26 23.73,52.98 52.99,52.98 157.78,0 286.14,128.36 286.14,286.14l0 84.78c0,17.53 -14.26,31.79 -31.79,31.79 -17.52,0 -31.79,-14.26 -31.79,-31.79l0 -84.78c0,-122.71 -99.84,-222.55 -222.55,-222.55z"/>
    </g>
   </g>
   <g>
   </g>
   <g>
   </g>
   <g>
   </g>
   <g>
   </g>
   <g>
   </g>
   <g>
   </g>
   <g>
   </g>
   <g>
   </g>
   <g>
   </g>
   <g>
   </g>
   <g>
   </g>
   <g>
   </g>
   <g>
   </g>
   <g>
   </g>
   <g>
   </g>
  </g>
 </g>
</svg>
