<?xml version="1.0" encoding="UTF-8"?>
<!DOCTYPE svg PUBLIC "-//W3C//DTD SVG 1.1//EN" "http://www.w3.org/Graphics/SVG/1.1/DTD/svg11.dtd">
<!-- Creator: CorelDRAW 2020 (64-Bit) -->
<svg xmlns="http://www.w3.org/2000/svg" xml:space="preserve" width="39.862mm" height="39.862mm" version="1.1" shape-rendering="geometricPrecision" text-rendering="geometricPrecision" image-rendering="optimizeQuality" fill-rule="evenodd" clip-rule="evenodd"
viewBox="0 0 717.77 717.77"
 xmlns:xlink="http://www.w3.org/1999/xlink"
 xmlns:xodm="http://www.corel.com/coreldraw/odm/2003">
 <g id="Слой_x0020_1">
  <metadata id="CorelCorpID_0Corel-Layer"/>
  <g id="_2763874508736">
   <g>
    <g>
     <path fill="#FEFEFE" fill-rule="nonzero" d="M707.24 696.7l-68.13 0 0 -416.48c0,-5.82 -4.72,-10.53 -10.54,-10.53l-112.37 -0c-5.82,0 -10.54,4.72 -10.54,10.54l0 416.48 -80.06 0 0 -292.87c0,-5.82 -4.72,-10.54 -10.54,-10.54l-112.37 0c-5.82,0 -10.54,4.72 -10.54,10.54l0 292.87 -80.06 0 0 -236.68c0,-5.82 -4.72,-10.54 -10.54,-10.54l-112.37 0c-5.82,0 -10.54,4.72 -10.54,10.54l0 236.68 -68.13 0c-5.82,0 -10.54,4.72 -10.54,10.54 0,5.82 4.72,10.54 10.54,10.54l696.7 0c5.82,0 10.54,-4.72 10.54,-10.54 -0,-5.82 -4.72,-10.53 -10.54,-10.53zm-516.2 0l-91.3 0 0 -226.15 91.3 0 0 226.15zm213.51 0l-91.3 0 0 -282.33 91.3 0 0 282.33zm213.5 0l-91.3 0 0 -405.94 91.3 0 0 405.94z"/>
    </g>
   </g>
   <g>
    <g>
     <path fill="#FEFEFE" fill-rule="nonzero" d="M684.14 8.26c-7.1,-6.27 -16.55,-9.19 -25.94,-8.01l-89.9 11.24c-17.85,2.23 -30.89,18.98 -28.66,36.84 2.26,18.05 18.77,30.92 36.85,28.66l7.34 -0.91c-110.34,127.93 -241.51,194.05 -334.2,227.28 -115.57,41.43 -205.53,44.98 -206.4,45.01 -18.17,0.57 -32.51,15.82 -31.96,33.99 0.54,17.95 15.03,32.01 32.98,32.01 0.33,0 0.67,-0 1.01,-0.01 4,-0.12 99.36,-3.49 224.99,-48.25 70.62,-25.17 137.08,-58.58 197.52,-99.3 4.82,-3.25 6.1,-9.8 2.85,-14.62 -3.25,-4.83 -9.8,-6.1 -14.62,-2.85 -58.97,39.74 -123.85,72.35 -192.81,96.92 -122.54,43.66 -214.69,46.92 -218.55,47.04l-0.38 0.01c-6.49,0 -11.73,-5.09 -11.92,-11.58 -0.2,-6.57 4.99,-12.09 11.57,-12.3 0.92,-0.03 93.44,-3.42 212.85,-46.23 100.04,-35.86 243.78,-109.09 360.46,-254.27 5.81,-7.23 -0.33,-18.2 -9.52,-17.05l-33.8 4.22c-5.86,0.73 -11.55,-3.12 -13.04,-8.84 -1.79,-6.89 3.02,-13.97 10.07,-14.86l89.9 -11.24c7.02,-0.89 13.42,4.79 13.42,11.85l0 89.9c0,6.58 -5.36,11.94 -11.94,11.94 -6.58,0 -11.94,-5.36 -11.94,-11.94l0 -27.25c0,-4.31 -2.78,-8.33 -6.81,-9.85 -4.16,-1.57 -9.08,-0.25 -11.89,3.19 -39.35,48.21 -84.15,91.84 -133.16,129.67 -4.6,3.55 -5.46,10.17 -1.9,14.78 3.55,4.61 10.17,5.46 14.78,1.9 42.7,-32.95 82.27,-70.19 117.95,-110.95 0.78,17.51 15.27,31.53 32.98,31.53 18.2,0 33.01,-14.81 33.01,-33.01l-0 -89.9c0,-9.46 -4.07,-18.48 -11.16,-24.75z"/>
    </g>
   </g>
   <g>
   </g>
   <g>
   </g>
   <g>
   </g>
   <g>
   </g>
   <g>
   </g>
   <g>
   </g>
   <g>
   </g>
   <g>
   </g>
   <g>
   </g>
   <g>
   </g>
   <g>
   </g>
   <g>
   </g>
   <g>
   </g>
   <g>
   </g>
   <g>
   </g>
  </g>
 </g>
</svg>
