<?xml version="1.0" encoding="UTF-8"?>
<!DOCTYPE svg PUBLIC "-//W3C//DTD SVG 1.1//EN" "http://www.w3.org/Graphics/SVG/1.1/DTD/svg11.dtd">
<!-- Creator: CorelDRAW 2020 (64-Bit) -->
<svg xmlns="http://www.w3.org/2000/svg" xml:space="preserve" width="40.2698mm" height="40.265mm" version="1.1" shape-rendering="geometricPrecision" text-rendering="geometricPrecision" image-rendering="optimizeQuality" fill-rule="evenodd" clip-rule="evenodd"
viewBox="0 0 712.64 712.55"
 xmlns:xlink="http://www.w3.org/1999/xlink"
 xmlns:xodm="http://www.corel.com/coreldraw/odm/2003">
 <g id="Слой_x0020_1">
  <metadata id="CorelCorpID_0Corel-Layer"/>
  <g id="_2763874519904">
   <g>
    <g>
     <path fill="#FEFEFE" fill-rule="nonzero" d="M657.55 0l-602.46 0c-30.37,0 -55.09,24.71 -55.09,55.09l0 357.01c0,30.38 24.71,55.09 55.09,55.09l223.83 0 0 86.92c0,3.01 1.54,5.55 2.85,8.16 0.99,1.98 1.98,3.96 2.97,5.94 18.74,37.48 46.99,70.03 83.96,96.72 34.03,24.57 65.84,37.16 81.77,42.47 2.97,0.99 5.94,1.96 8.9,2.97 2.76,0.94 5.55,2.17 8.52,2.19 2.89,0.02 5.59,-1.18 8.27,-2.1 3.04,-1.05 6.1,-2.04 9.16,-3.06 15.93,-5.31 47.74,-17.89 81.77,-42.47 36.97,-26.7 65.22,-59.24 83.96,-96.73 0.99,-1.98 1.98,-3.96 2.97,-5.94 1.3,-2.61 2.85,-5.15 2.85,-8.16l0 -86.91 0.7 -0c30.37,0 55.09,-24.71 55.09,-55.09l0 -357.01c-0,-30.37 -24.72,-55.09 -55.09,-55.09zm-21.62 551.63l-3.61 7.21c-17.22,34.43 -43.29,64.42 -77.5,89.12 -31.77,22.95 -61.34,34.65 -76.14,39.58 -1.88,0.63 -3.77,1.25 -5.66,1.88 -0.99,0.33 -2.01,0.63 -2.97,1.02 -0.78,0.31 -1.52,0.75 -2.39,0.68 -0.83,-0.07 -1.56,-0.53 -2.32,-0.83 -0.86,-0.34 -1.77,-0.59 -2.65,-0.88 -1.87,-0.62 -3.74,-1.25 -5.61,-1.87 -14.8,-4.93 -44.37,-16.63 -76.14,-39.58 -34.21,-24.7 -60.28,-54.69 -77.5,-89.12l-3.6 -7.21 -0 -222.82 44.97 14.99c10.12,3.37 20.77,5.08 31.64,5.08 39.28,-0 70.61,-22.08 71.02,-22.38l20.48 -15.36 20.41 15.41c0.06,0.04 0.12,0.09 0.18,0.13 0.31,0.22 31.23,22.2 70.77,22.2 10.87,0 21.52,-1.71 31.65,-5.08l44.97 -14.99 0 222.82 0 0zm55.78 -373.13l-111.57 0c-5.78,0 -10.46,4.68 -10.46,10.46 0,5.78 4.68,10.46 10.46,10.46l111.57 0 0 212.67c0,18.84 -15.33,34.17 -34.17,34.17l-0.7 0 0 -131.97c0,-7.01 -7.1,-12.15 -13.77,-9.92l-58.74 19.58c-7.98,2.66 -16.41,4.01 -25.03,4.01 -31.4,0 -57.27,-17.39 -58.49,-18.22l-26.55 -20.04c-3.72,-2.81 -8.85,-2.82 -12.58,-0.02l-26.61 19.96c-1.43,0.98 -27.23,18.32 -58.63,18.32 -8.63,0 -17.05,-1.35 -25.03,-4.01l-58.74 -19.58c-6.67,-2.22 -13.77,2.91 -13.77,9.92l0 131.97 -223.84 0c-18.84,0 -34.17,-15.33 -34.17,-34.17l0 -212.67 508.33 0c5.78,0 10.46,-4.68 10.46,-10.46 0,-5.78 -4.68,-10.46 -10.46,-10.46l-508.33 0 0 -68.33 670.8 0 0 68.33 0 0zm0 -89.26l-670.8 0 0 -34.17c0,-18.84 15.33,-34.17 34.17,-34.17l602.46 0c18.84,0 34.17,15.33 34.17,34.17l0 34.17 0 0z"/>
    </g>
   </g>
   <g>
    <g>
     <path fill="#FEFEFE" fill-rule="nonzero" d="M200.12 312.39l-145.04 0c-5.78,0 -10.46,4.68 -10.46,10.46 0,5.78 4.68,10.46 10.46,10.46l145.04 0c5.78,0 10.46,-4.68 10.46,-10.46 -0,-5.78 -4.68,-10.46 -10.46,-10.46z"/>
    </g>
   </g>
   <g>
    <g>
     <path fill="#FEFEFE" fill-rule="nonzero" d="M322.85 223.13l-267.76 0c-5.78,0 -10.46,4.68 -10.46,10.46l0 44.63c0,5.78 4.68,10.46 10.46,10.46l267.76 0c5.78,0 10.46,-4.68 10.46,-10.46l0 -44.63c0,-5.78 -4.68,-10.46 -10.46,-10.46zm-10.46 44.63l-246.84 0 0 -23.71 246.84 0 0 23.71z"/>
    </g>
   </g>
   <g>
    <g>
     <path fill="#FEFEFE" fill-rule="nonzero" d="M598.46 366.3c-66.12,22.04 -123.72,-20.33 -124.3,-20.76 -3.72,-2.79 -8.83,-2.79 -12.55,0 -0.58,0.43 -58.17,42.8 -124.3,20.76 -6.67,-2.22 -13.77,2.91 -13.77,9.92l0 167.35c0,1.62 0.38,3.23 1.1,4.68 40.07,80.14 123.59,111.37 139.93,116.81 2.14,0.71 4.48,0.71 6.62,0 16.34,-5.45 99.86,-36.67 139.93,-116.81 0.73,-1.45 1.1,-3.05 1.1,-4.68l0 -167.35c0,-7.02 -7.1,-12.14 -13.77,-9.92zm-7.15 174.77l0 0c-34.59,66.88 -103.02,95.68 -123.42,103 -20.41,-7.32 -88.83,-36.12 -123.42,-103l0 -151.08c57.11,12.87 106.46,-13.03 123.42,-23.55 13.71,8.5 48.58,27.06 91.61,27.06 10.2,-0 20.87,-1.05 31.81,-3.51l0 151.08 -0 0z"/>
    </g>
   </g>
   <g>
    <g>
     <path fill="#FEFEFE" fill-rule="nonzero" d="M555.29 436.41c0,0 0,0 0,-0 -9.87,-11.28 -27.09,-12.42 -38.37,-2.56l-67.19 58.79 -15.88 -21.17c-8.89,-11.85 -26.21,-14.34 -38.07,-5.44 -11.86,8.89 -14.34,26.21 -5.44,38.07l33.47 44.63c9.35,12.47 27.92,14.42 39.66,4.15l89.25 -78.1c11.28,-9.87 12.43,-27.09 2.56,-38.38zm-16.33 22.63l-89.25 78.1c-2.71,2.37 -6.99,1.93 -9.15,-0.96l-33.47 -44.63c-2.03,-2.71 -1.45,-6.75 1.26,-8.79 2.71,-2.03 6.75,-1.45 8.78,1.26l22.64 30.19c3.6,4.8 10.74,5.55 15.25,1.6l75.67 -66.22c2.55,-2.23 6.63,-1.96 8.86,0.59 2.23,2.55 1.96,6.63 -0.59,8.86z"/>
    </g>
   </g>
   <g>
   </g>
   <g>
   </g>
   <g>
   </g>
   <g>
   </g>
   <g>
   </g>
   <g>
   </g>
   <g>
   </g>
   <g>
   </g>
   <g>
   </g>
   <g>
   </g>
   <g>
   </g>
   <g>
   </g>
   <g>
   </g>
   <g>
   </g>
   <g>
   </g>
  </g>
 </g>
</svg>
