<?xml version="1.0" encoding="UTF-8"?>
<!DOCTYPE svg PUBLIC "-//W3C//DTD SVG 1.1//EN" "http://www.w3.org/Graphics/SVG/1.1/DTD/svg11.dtd">
<!-- Creator: CorelDRAW 2020 (64-Bit) -->
<svg xmlns="http://www.w3.org/2000/svg" xml:space="preserve" width="40.1918mm" height="40.265mm" version="1.1" shape-rendering="geometricPrecision" text-rendering="geometricPrecision" image-rendering="optimizeQuality" fill-rule="evenodd" clip-rule="evenodd"
viewBox="0 0 3889.9 3896.98"
 xmlns:xlink="http://www.w3.org/1999/xlink"
 xmlns:xodm="http://www.corel.com/coreldraw/odm/2003">
 <g id="Слой_x0020_1">
  <metadata id="CorelCorpID_0Corel-Layer"/>
  <g id="_2763874581632">
   <g>
    <g>
     <path fill="#FEFEFE" fill-rule="nonzero" d="M2668.91 2197.21l-529.09 -325.1c-6.45,-3.97 -13.86,-6.66 -21.34,-7.83l-165.64 -29.23c-30.64,-5.41 -60.73,15.67 -66.14,46.31 -5.4,30.64 15.66,60.74 46.3,66.14l156.31 27.58 519.82 319.41c25.38,15.59 60.19,8.02 77.03,-16.49 18.07,-26.31 9.91,-64.1 -17.26,-80.8z"/>
    </g>
   </g>
   <g>
    <g>
     <path fill="#FEFEFE" fill-rule="nonzero" d="M3874.51 2215.52c-21.53,-23.04 -57.66,-24.25 -80.7,-2.73l-231.46 216.31 -1060.54 -1046.42 1370.02 -1283.93c23.01,-21.56 24.18,-57.7 2.62,-80.7 -21.55,-23.01 -57.69,-24.18 -80.7,-2.62l-1413.34 1324.54c-23.31,21.83 -23.8,59.86 -1.06,82.29l93.81 92.55 -29.94 26.44 -627.02 -54c-9.68,-0.82 -19.73,0.84 -28.56,4.93l-496.82 226.27c-1.44,-0.38 -2.88,-0.75 -4.38,-1.01l-285.78 -50.43 23.11 -59.07c11.42,-29.22 -2.85,-62.17 -31.97,-73.81l-913.48 -365.4c-29.29,-11.73 -62.5,2.53 -74.2,31.81 -11.72,29.27 2.53,62.5 31.8,74.2l860.86 344.36 -507.31 1296.42 -313.3 -110.96c-29.73,-10.52 -62.35,5.03 -72.88,34.75 -10.52,29.73 5.04,62.36 34.76,72.88l365.39 129.41c28.69,10.16 61.15,-4.7 72.23,-33.01l84.78 -216.67 222.15 124.49 -24.5 39.72c-69.42,112.51 -34.38,260.54 78.15,329.97 59.5,36.71 133.37,45.42 199.86,23.9 10.67,69.3 51.39,131.13 111.1,167.97 59.5,36.72 133.37,45.42 199.87,23.9 10.67,69.3 51.37,131.12 111.09,167.97 59.69,36.84 133.16,45.5 199.88,23.97 10.68,69.26 51.38,131.06 111.08,167.89 86.77,53.53 201.6,45.54 279.81,-20.01 19.71,-16.52 36.67,-36.25 50.18,-58.14l38.95 -63.11 32.06 19.71c86.87,53.38 201.69,45.16 279.77,-20.54 19.69,-16.56 36.61,-36.31 50.08,-58.22 26.76,-43.56 37.83,-92.38 34.91,-139.91 18.13,4.36 36.69,6.71 55.41,6.71 82.91,0 161.36,-43.73 204.75,-114.34 26.14,-42.56 38.08,-91.05 35.05,-139.89 18.08,4.35 36.6,6.67 55.26,6.67 82.91,0 161.36,-43.73 204.75,-114.34 26.16,-42.57 38.09,-91.11 35.04,-139.98 18.28,4.35 36.86,6.63 55.33,6.63 80.63,0 159.48,-40.6 204.7,-114.19 69.22,-112.66 33.88,-260.62 -78.77,-329.83l-39.12 -24.04 131.21 -137.09 122.74 121.1c21.52,21.22 57,21.7 79.07,1.07l271.51 -253.74c23.02,-21.52 24.24,-57.65 2.71,-80.7zm-2805.45 932.49c-36.37,58.93 -113.91,77.29 -172.86,40.94 -58.94,-36.36 -77.3,-113.9 -40.94,-172.85l319.78 -518.26c35.69,-57.85 112.28,-76.76 170.75,-42.21 60.51,35.77 77.2,118.72 40.88,177.62l-317.62 514.75zm310.95 191.86c-36.36,58.94 -113.9,77.3 -172.84,40.95 -58.22,-35.94 -76.92,-114.53 -40.94,-172.85l255.82 -414.61c35.68,-57.84 112.27,-76.76 170.75,-42.22 60.51,35.77 77.21,118.73 40.87,177.62l-253.66 411.11zm310.98 191.87c-17.63,28.55 -45.32,48.54 -77.96,56.27 -32.65,7.73 -66.35,2.28 -94.91,-15.33 -58.22,-35.94 -76.91,-114.53 -40.93,-172.85l191.86 -310.96c35.69,-57.85 112.28,-76.77 170.75,-42.22 60.51,35.77 77.2,118.72 40.88,177.62l-189.71 307.46zm436.71 -11.93l-125.75 203.81c-35.94,58.22 -114.53,76.9 -172.86,40.93 -58.22,-35.93 -76.91,-114.53 -40.93,-172.85l127.9 -207.3c35.69,-57.83 112.29,-76.78 170.75,-42.21 60.51,35.77 77.2,118.73 40.88,177.62zm1040.03 -1016.09l-283 -173.89c-26.24,-16.13 -62.41,-7.49 -78.52,18.75 -16.13,26.25 -7.49,62.41 18.75,78.53l421.65 259.08c59,36.26 77.51,113.76 41.26,172.77 -36.26,59 -113.76,77.51 -172.77,41.26l-452.21 -277.86c-26.87,-16.52 -62.03,-8.11 -78.53,18.75 -16.5,26.86 -8.1,62.03 18.76,78.53l348.45 214.1c58.29,35.82 77.13,114.39 41.26,172.77 -35.82,58.29 -114.39,77.13 -172.77,41.26l-315.78 -194.03c-26.87,-16.51 -62.02,-8.11 -78.52,18.76 -16.5,26.86 -8.11,62.02 18.76,78.52l212 130.27c58.28,35.83 77.13,114.38 41.26,172.77 -35.82,58.28 -114.39,77.14 -172.77,41.26 0,0 -186.44,-114.45 -188.19,-115.29 -26.07,-12.58 -57.94,-3.63 -73.42,21.55 -16.5,26.86 -8.1,62.02 18.76,78.52l79.3 48.73c59,36.26 77.5,113.76 41.25,172.77 -35.82,58.29 -114.39,77.13 -172.77,41.26l-31.87 -19.59 26.84 -43.51c34.32,-55.62 44.98,-124.12 29.22,-187.93 -15.54,-62.98 -54.31,-115.51 -109.16,-147.93 -42.79,-25.28 -90.66,-35.53 -137.27,-32.38 8.76,-37.6 8.8,-77.22 -0.58,-115.21 -15.53,-62.98 -54.31,-115.51 -109.15,-147.92 -42.79,-25.29 -90.66,-35.54 -137.27,-32.39 23.54,-101.14 -19.8,-209.96 -109.73,-263.13 -42.79,-25.28 -90.66,-35.53 -137.27,-32.39 23.54,-101.14 -19.8,-209.95 -109.73,-263.12 -111.65,-66 -257.9,-29.85 -326.02,80.54l-235.26 381.3 -240.2 -134.56 355.74 -909.11 193.69 34.18c-55.09,68.43 -70.58,164.76 -31.76,250.02 40.17,88.2 127.44,140.38 218.59,140.38 33.19,0 66.9,-6.93 99.03,-21.56l334.35 -152.29c28.31,-12.89 41.19,-47.3 28.29,-75.62 -12.89,-28.3 -47.31,-41.2 -75.62,-28.29l-334.36 152.28c-63.02,28.72 -137.65,0.78 -166.37,-62.24 -28.7,-63.03 -0.78,-137.66 62.25,-166.37l535.03 -243.68 636.44 54.81c1.64,0.15 3.27,0.21 4.9,0.21 13.86,0 27.3,-5.04 37.78,-14.29l54.18 -47.83 762.55 752.36 -149.43 156.16z"/>
    </g>
   </g>
   <g>
   </g>
   <g>
   </g>
   <g>
   </g>
   <g>
   </g>
   <g>
   </g>
   <g>
   </g>
   <g>
   </g>
   <g>
   </g>
   <g>
   </g>
   <g>
   </g>
   <g>
   </g>
   <g>
   </g>
   <g>
   </g>
   <g>
   </g>
   <g>
   </g>
  </g>
 </g>
</svg>
