<?xml version="1.0" encoding="UTF-8"?>
<!DOCTYPE svg PUBLIC "-//W3C//DTD SVG 1.1//EN" "http://www.w3.org/Graphics/SVG/1.1/DTD/svg11.dtd">
<!-- Creator: CorelDRAW 2020 (64-Bit) -->
<svg xmlns="http://www.w3.org/2000/svg" xml:space="preserve" width="372.408mm" height="132.595mm" version="1.1" shape-rendering="geometricPrecision" text-rendering="geometricPrecision" image-rendering="optimizeQuality" fill-rule="evenodd" clip-rule="evenodd"
viewBox="0 0 107752.71 38365.14"
 xmlns:xlink="http://www.w3.org/1999/xlink"
 xmlns:xodm="http://www.corel.com/coreldraw/odm/2003">
 <g id="Layer_x0020_1">
  <metadata id="CorelCorpID_0Corel-Layer"/>
  <path fill="#FEFEFE" d="M26707.94 11257.91c3495.17,0 6329.64,2834.46 6329.64,6329.61 0,3495.17 -2834.46,6329.64 -6329.64,6329.64 -3495.17,0 -6329.64,-2834.46 -6329.64,-6329.64 0,-3495.14 2834.46,-6329.61 6329.64,-6329.61z"/>
  <path fill="#0060AA" d="M30119.63 37461.99c-23760.02,5527.3 -39083.95,-14967.23 -24322.32,-35784.57 3416.94,2640.35 6833.87,5280.69 10250.81,7921.04 -3513.86,5467.84 -3139.86,10158.19 -1677.39,14630.7 -2314.75,-4581.85 -3153.61,-9241.21 -745.51,-14071.55 -2768.76,-1848.54 -4803.43,-3206.96 -7572.18,-5055.56 -10247.05,15902.75 -801.68,34596.13 24066.61,32359.94z"/>
  <path fill="#00A0E3" d="M9457.78 3322.76c0,-186.39 3421.91,-3322.76 3421.91,-3322.76 2640.35,3448.01 5280.69,6895.99 7921.07,10343.97 -3269.98,2600.45 -3964.57,6159.1 -3727.57,10064.41 -1250.88,-3677.28 -1122.24,-6865.24 1620.91,-10053.39 -2267.62,-2453.98 -4292.33,-5198.52 -6559.92,-7652.5 -604.03,543.15 -1208.05,1086.3 -1812.11,1629.42 -288.1,-336.39 -576.19,-672.77 -864.29,-1009.16z"/>
  <path fill="#A2D9F7" d="M15704.44 2337.18c1192.05,-774.33 2384.14,-1548.67 3576.22,-2323 1833.95,4065.26 4092.28,7578.78 5926.24,11644.07 -2832.53,1239.19 -4418.49,3917.75 -4642.47,6542.68 -366.8,-2985.36 570.55,-5359.31 2812.07,-7121.85 -1701.52,-2852.84 -3403.02,-5705.68 -5104.51,-8558.48 -590.95,326.03 -1181.9,652.06 -1772.85,978.11 -264.89,-387.17 -529.81,-774.33 -794.7,-1161.53z"/>
  <g id="_1988730646704">
   <path fill="#E31E24" d="M22811.22 15005.04l0 100.92c0,510.95 583.43,807.38 1112.05,807.75l-137.44 1244.28 0 302.74 -302.51 0c-760.13,0 -1512.27,-577.09 -1512.27,-1379.2 0,-155.69 54.95,-223.14 67.18,-370.07l-67.18 0c-4.98,221.92 -201.67,531.32 -201.67,841 0,763.34 717.94,1279.12 1363.66,1427.14 818.66,187.64 599.43,-149.1 739.38,639.09 61.83,348.31 229.68,925.37 249.44,1163.18l-403.31 0c-495.21,0 -1023.57,-177.13 -1366.61,-347.64 -532.24,-264.51 -549.54,-428.51 -851.44,-863.36 0,1182.65 1545.05,1782.89 2823.01,1782.89 145.71,275.65 241.77,565.02 409.97,834.28 169.9,272.01 328.23,493.9 497.4,746.82 -40.97,23.03 -35.94,33.62 -100.78,33.62l-134.46 0c-464.28,0 -1053.72,-77.49 -1424.25,-189.08 -204.48,-61.6 -417.87,-135.56 -592.4,-214.37 -141.08,-63.71 -451.14,-279.88 -537.45,-302.97 536.18,801.56 1814.6,1143.73 3192.61,1143.73 255.52,171.26 458.55,394.37 752.78,592.11 143.98,96.78 818.51,427.15 860.38,484.36 -75.4,17.62 -77.28,33.68 -168.05,33.68l-909.54 18.34 -972.44 -119.27c278.75,193.86 1425.72,370.01 1949.2,370.01 1219.4,0 2102,-360.89 2901.71,-795.83 484.56,-263.59 1735.58,-1322.46 1870.47,-1828.05 -205.26,137.61 -645.92,721.09 -849.65,734.17l-326.58 -1373.32c419.51,-112.12 1076.55,-1132.54 1344.28,-1311.98l33.62 -3.04 135.9 1420.43 99.3 -946.4 12.93 -270.74 -80.15 -570.26c227.42,-430.22 436.93,-957.63 436.93,-1614.72l16.2 -36.25 -117.04 -535.6c0,458.6 -244.23,1415.11 -470.5,1581.07l35.18 -16.41 -707.35 -1463.77c174.13,-329.36 369.72,-777.57 369.72,-1278.33l0 -100.89c0,-431.58 -215.18,-871.7 -470.5,-1042.81 16.43,198.2 100.78,302.68 100.78,571.88l0 100.89c0,393.59 -183.01,1063.41 -403.28,1211.03 -153.93,-291.22 -896.12,-1023.28 -1176.23,-1211.03 118.4,-223.95 235.23,-566.88 235.23,-908.27 0,-669.76 -646.21,-1332.27 -1209.82,-1379.26 303.49,264.11 672.11,431.15 672.11,1042.87l0 67.27c0,398.97 -139.72,507.71 -198,766.61l-1298.04 -663.86 -16.26 31.8c15.88,-191.17 134.4,-340.47 134.4,-605.5l0 -33.62c0,-530.25 -605.59,-841 -1142.6,-841l-403.28 0c-1418.29,0 -3864.78,1254.41 -3864.78,2522.96z"/>
   <path fill="white" d="M23214.5 14769.58c0,447.9 408.92,672.77 873.78,672.77l-33.91 -16.32 600.55 -1246.83 38.25 18.49c-6.54,79.05 -576.02,1278.28 -369.66,1278.28 189.4,0 946.75,-92.27 997.07,-181.91 9.03,-16.06 -89.7,-934.51 -74.56,-1100.3l287.31 1046.78c256.21,-59.75 893.63,-333.29 1021.05,-518.18l-718.55 -692.88c208.82,48.7 876.99,571.88 907.37,571.88 147.16,0 690.83,-527.12 706.45,-709.2l-1168.44 -299.61 -8.51 33.25 0 -33.62 5.15 -34.29 1305.53 202.51c32.32,-138.97 100.81,-272.79 100.81,-437.31 0,-433.87 -507.71,-706.48 -974.59,-706.48l-369.69 0c-1138.61,0 -3125.43,1080.02 -3125.43,2152.98z"/>
   <path fill="white" d="M27381.72 19849.18c86.6,163.8 762.56,1446.5 840.16,1446.5 297.01,0 1785.81,-899.33 2064.65,-1083.64l-714.73 -1458.62 -39.21 19.27c-317.17,212.61 -657.61,413.44 -1019.52,594.19 -378.78,189.2 -765.22,306.44 -1131.35,482.3z"/>
   <path fill="white" d="M26407.11 17696.23c0,229.07 569.74,1218.09 638.55,1513.77 367.43,-8.19 2011.03,-867.44 2150.84,-1076.46 -89.98,-170.19 -844.35,-1379.23 -940.99,-1379.23 -13.19,0 -767.5,434.39 -885.09,493.24 -106.8,53.5 -963.3,407.42 -963.3,448.68z"/>
   <path fill="white" d="M24726.79 20353.76c34.03,409.39 724.91,1235.86 907.37,1581.1 521.02,-11.63 1859.79,-332.57 2218.05,-504.61 -27.69,-119.03 -859.51,-1446.53 -873.78,-1446.53 -113.65,0 -833.88,205.72 -1061.04,249.82 -361.73,70.28 -781.83,120.22 -1190.61,120.22z"/>
   <path fill="white" d="M24088.28 18099.92c30.47,63.6 129.65,753.15 160.84,881.79 61.17,252.28 140.1,606.6 242.44,800.17 827.72,0 1509.78,-246.32 2189.93,-406l-644.04 -1578.73c-196.26,4.37 -677.2,153.15 -915.65,193.54 -306.56,51.91 -768.95,47.51 -1033.52,109.23z"/>
   <path fill="white" d="M28591.6 16485.22l974.56 1412.82c211.42,-141.69 1310.71,-1111.76 1310.71,-1311.93 0,-179.45 -942.76,-1166.85 -1109.04,-1278.33 -132.55,88.89 -384.27,469.31 -546.04,630.82 -192.32,192.01 -408.81,398.22 -630.18,546.62z"/>
   <path fill="white" d="M29902.25 18537.22c0,53.82 573.04,1198.74 638.52,1480.15 246.78,-130.67 1377.9,-1166.07 1377.9,-1412.88 0,-359.19 -535.92,-1150.04 -604.95,-1446.5l-100.78 0c-95.08,356.26 -1310.68,1359.55 -1310.68,1379.23z"/>
   <path fill="white" d="M28524.38 21766.64c35.82,134.34 799.42,1143.76 873.78,1143.76 267.64,0 1264.79,-709.9 1526.73,-845.71l-417.69 -1307.24c-129.45,30.18 -736.98,436.41 -941.05,538.23 -270.53,135.06 -737.44,399.98 -1041.77,470.96z"/>
   <path fill="white" d="M26071.07 22372.14c237.49,355.02 930.08,767.01 1344.04,975.83 274.47,138.42 548.36,50.52 894.29,-47.22 209.16,-59.11 759.08,-194.09 848.26,-318.48l-928.98 -1057.48 26.82 -23.61c-220.94,4.92 -757.64,216.05 -1039.4,271.55 -340.52,67.07 -802.98,119.67 -1145.04,199.41z"/>
   <path fill="white" d="M25667.79 15677.85l436.87 1345.58c288.27,0 1713.99,-733.62 1713.99,-841 0,-101.21 -796.76,-1002.3 -907.43,-1076.46 -302.65,202.89 -839.55,477.67 -1243.44,571.88z"/>
   <path fill="white" d="M24157.54 15961.98l-102.89 1229.64 0 269.12 134.4 0c372.53,0 1279.12,-165.01 1543.69,-274.01 133.59,-55 -278.69,-1149.12 -299.44,-1402.49l-1275.76 177.74z"/>
   <path fill="white" d="M27180.11 14937.77c0,53.93 876.56,943.48 974.59,1009.19 175.54,-92.97 1041.8,-901.01 1041.8,-1042.81 0,-173.49 -1017.06,-671.62 -1209.85,-773.75 -110.27,73.93 -262.95,314.8 -377.5,429.47 -51.94,52.02 -429.03,355.57 -429.03,377.91z"/>
  </g>
  <g id="_1988730650640">
   <path fill="#0060AA" fill-rule="nonzero" d="M12412.93 27671.44c265.41,55.7 483.86,178.03 654.26,367 171.46,190.04 256.67,418.33 256.67,687.01 0,206.44 -41.52,399.78 -123.43,581.08 -81.91,181.3 -199.88,328.78 -354.96,442.37 -148.55,108.13 -313.5,178.03 -494.8,209.71 -182.4,30.58 -401.95,45.86 -658.63,45.86l-1756.35 0c140.91,-101.59 230.49,-210.81 269.81,-327.68 38.22,-116.86 57.87,-269.78 57.87,-459.85l0 -2620.29c0,-163.82 -5.44,-296 -16.38,-397.58 -12.01,-101.59 -41.49,-203.15 -89.55,-303.63 -48.06,-100.49 -121.26,-187.87 -221.75,-262.14l1833.9 0c239.2,0 465.29,38.22 678.3,114.69 211.88,76.44 385.55,196.58 518.82,361.53 133.24,164.92 199.88,370.27 199.88,618.2 0,172.56 -29.48,317.84 -89.58,436.9 -60.07,117.96 -144.15,216.25 -253.38,294.9 -108.16,78.64 -245.77,148.55 -410.69,211.91zm-1297.6 -243.57l275.25 0c283.99,0 508.98,-38.25 675,-113.6 166.02,-75.37 249.04,-235.93 249.04,-480.59 0,-237.03 -75.37,-394.31 -226.09,-471.86 -151.82,-78.64 -356.06,-117.96 -612.76,-117.96 -42.59,0 -104.83,1.1 -185.67,3.27 -80.81,2.2 -139.81,3.27 -174.76,3.27l0 1177.47zm0 1966.04l294.9 0c197.71,0 365.93,-15.31 504.64,-44.79 137.61,-29.48 251.21,-97.22 338.59,-200.98 88.48,-104.86 132.17,-257.77 132.17,-460.92 0,-181.33 -41.52,-318.94 -124.53,-415.06 -82.98,-95.02 -190.04,-157.29 -318.91,-187.87 -130,-30.58 -281.82,-45.86 -454.38,-45.86 -44.79,0 -108.13,1.07 -191.14,3.27 -84.11,2.17 -144.18,3.27 -181.33,3.27l0 1348.93zm2818.03 -1991.18l0 -1081.32c89.55,52.43 220.62,78.64 392.11,78.64 110.3,0 273.05,-10.91 487.13,-32.75 214.08,-21.85 381.21,-32.78 503.54,-32.78 418.33,0 731.8,102.69 937.14,309.1 122.33,119.06 198.78,249.04 229.36,388.84 30.58,139.81 45.89,326.58 45.89,561.41l0 1623.08c0,193.34 15.28,350.62 44.79,471.86 29.48,121.26 101.56,226.12 216.25,315.67l-956.82 0c-40.39,-109.23 -69.9,-233.73 -91.75,-373.54 -285.06,305.83 -608.37,458.72 -969.9,458.72 -200.98,0 -383.4,-44.76 -547.23,-135.41 -163.82,-89.58 -292.73,-215.18 -386.65,-376.84 -93.95,-160.55 -140.91,-341.88 -140.91,-542.86 0,-326.58 104.86,-587.62 313.47,-782.03 209.71,-195.54 468.59,-330.98 778.79,-407.42 309.1,-76.47 626.94,-114.69 952.42,-114.69 0,-197.68 -17.48,-353.89 -53.5,-466.39 -36.05,-112.5 -104.86,-197.71 -208.64,-254.5 -103.76,-55.7 -254.47,-84.08 -451.08,-84.08 -495.9,0 -860.7,159.46 -1094.43,477.3zm1807.65 812.64c-318.94,0 -600.73,54.63 -845.39,164.92 -244.67,110.33 -367,304.73 -367,581.08 0,146.38 51.33,271.98 152.92,377.91 101.59,105.96 226.09,159.48 371.37,159.48 269.78,0 499.17,-148.55 688.11,-445.64l0 -837.76zm2504.53 -2975.29l0 3976.87c0,194.44 15.31,352.82 45.89,475.15 31.68,123.4 103.76,227.19 216.25,312.37l-1311.78 0c113.6,-85.18 185.67,-188.97 216.25,-312.37 30.58,-122.33 45.89,-280.72 45.89,-475.15l0 -3189.37c0,-191.14 -15.31,-349.49 -45.89,-474.03 -30.58,-124.5 -102.66,-229.36 -216.25,-313.47l1049.64 0zm1736.68 406.32l0 786.43 667.36 0c166.02,0 283.99,-37.15 354.99,-112.52l-65.54 682.67 -956.82 0 0 1722.47c0,436.9 194.44,655.36 582.18,655.36 206.44,0 397.58,-78.64 571.24,-237.03l-131.07 768.95c-251.21,91.75 -491.5,137.61 -721.96,137.61 -350.62,0 -620.4,-101.56 -807.17,-303.63 -186.8,-202.08 -280.72,-478.4 -280.72,-830.12l0 -1913.61 -516.65 0 1304.14 -1356.57zm2064.27 8579.87l0 765.68c0,244.67 17.48,439.07 53.53,583.25 36.05,144.18 126.7,270.88 273.05,380.11l-1506.22 0c140.91,-101.59 230.49,-210.81 269.81,-327.68 38.22,-116.86 57.87,-269.78 57.87,-459.85l0 -2620.29c0,-163.82 -5.44,-296 -16.38,-397.58 -12.01,-101.59 -41.49,-203.15 -89.55,-303.63 -48.06,-100.49 -121.26,-187.87 -221.75,-262.14l1665.7 0c223.89,0 430.34,24.02 620.37,73.17 190.07,48.06 358.26,124.53 504.64,227.19 146.35,103.76 262.14,239.2 346.22,407.42 84.11,167.09 126.7,368.07 126.7,602.9 0,308.03 -58.97,554.87 -175.83,739.47 -117.96,184.6 -273.08,318.94 -467.49,401.95 -194.44,84.11 -403.05,136.54 -624.77,158.38 -222.82,20.75 -494.8,31.65 -815.91,31.65zm0 -610.57l367 0c143.08,0 275.25,-28.38 394.31,-84.11 120.13,-55.7 214.08,-137.61 281.79,-245.74 68.81,-108.13 102.66,-237.03 102.66,-384.48 0,-244.67 -77.54,-422.7 -231.53,-536.29 -155.12,-113.6 -357.19,-170.39 -607.3,-170.39 -33.85,0 -85.21,1.1 -155.12,3.27 -68.81,2.2 -120.13,3.27 -151.82,3.27l0 1414.47zm2589.74 -262.14l0 -1081.32c89.55,52.43 220.62,78.64 392.11,78.64 110.3,0 273.05,-10.91 487.13,-32.75 214.08,-21.85 381.21,-32.78 503.54,-32.78 418.33,0 731.8,102.69 937.14,309.1 122.33,119.06 198.78,249.04 229.36,388.84 30.58,139.81 45.89,326.58 45.89,561.41l0 1623.08c0,193.34 15.28,350.62 44.79,471.86 29.48,121.26 101.56,226.12 216.25,315.67l-956.82 0c-40.39,-109.23 -69.9,-233.73 -91.75,-373.54 -285.06,305.83 -608.37,458.72 -969.9,458.72 -200.98,0 -383.4,-44.76 -547.23,-135.41 -163.82,-89.58 -292.73,-215.18 -386.65,-376.84 -93.95,-160.55 -140.91,-341.88 -140.91,-542.86 0,-326.58 104.86,-587.62 313.47,-782.03 209.71,-195.54 468.59,-330.98 778.79,-407.42 309.1,-76.47 626.94,-114.69 952.42,-114.69 0,-197.68 -17.48,-353.89 -53.5,-466.39 -36.05,-112.5 -104.86,-197.71 -208.64,-254.5 -103.76,-55.7 -254.47,-84.08 -451.08,-84.08 -495.9,0 -860.7,159.46 -1094.43,477.3zm1807.65 812.64c-318.94,0 -600.73,54.63 -845.39,164.92 -244.67,110.33 -367,304.73 -367,581.08 0,146.38 51.33,271.98 152.92,377.91 101.59,105.96 226.09,159.48 371.37,159.48 269.78,0 499.17,-148.55 688.11,-445.64l0 -837.76zm2479.42 -1796.75l0 283.99c197.71,-245.77 462.02,-368.1 792.97,-368.1 291.66,0 540.66,85.21 747.11,254.5 206.44,169.29 360.46,387.74 462.02,655.36 101.59,268.68 152.92,543.93 152.92,827.92 0,328.75 -48.06,646.62 -144.18,953.52 -96.12,306.93 -252.3,561.44 -468.56,762.41 -217.38,200.98 -495.9,301.43 -835.59,301.43 -249.04,0 -476.23,-76.44 -681.57,-229.36l0 537.39c0,193.34 18.58,351.69 56.8,472.93 38.25,122.33 122.33,227.19 252.33,313.5l-1358.77 0c113.6,-85.21 185.67,-188.97 216.25,-312.4 30.58,-122.33 45.89,-280.69 45.89,-472.93l0 -3192.67c0,-191.14 -15.31,-349.52 -45.89,-474.03 -30.58,-124.5 -102.66,-229.36 -216.25,-313.47l1024.53 0zm25.11 2849.68c119.06,147.45 265.44,223.89 439.1,230.46 313.47,0 536.29,-137.64 667.36,-413.96 132.14,-276.35 197.68,-592.02 197.68,-948.08 0,-179.13 -26.21,-360.43 -77.54,-543.93 -51.33,-182.4 -136.51,-336.42 -253.4,-460.95 -116.86,-124.5 -266.51,-186.77 -448.91,-186.77 -209.71,0 -384.48,104.86 -524.28,314.57l0 2008.66zm5672.05 -961.19l-2200.87 0c0,222.82 44.76,423.8 133.24,605.1 89.58,180.23 217.35,323.31 385.57,428.17 168.19,105.96 363.7,158.38 588.72,158.38 358.26,0 692.48,-187.87 1002.68,-563.61l-209.71 1154.5c-46.96,-56.8 -129.97,-85.18 -250.13,-85.18 -95.02,0 -231.56,14.21 -407.39,42.59 -175.86,28.41 -309.1,42.59 -398.68,42.59 -345.15,0 -645.52,-79.71 -898.92,-240.27 -254.47,-159.48 -446.71,-379.04 -578.88,-658.65 -132.17,-279.59 -198.81,-591.99 -198.81,-936.04 0,-338.59 57.9,-653.16 173.69,-945.88 115.77,-291.63 292.73,-527.55 531.92,-706.68 239.2,-178.03 531.92,-267.61 880.35,-267.61 232.66,0 454.38,57.9 661.89,174.76 207.54,116.86 371.37,275.25 491.53,475.13 195.51,314.57 293.8,755.84 293.8,1322.72zm-837.76 -590.92c-8.74,-133.24 -38.22,-262.11 -88.45,-386.65 -51.36,-124.5 -124.53,-226.09 -221.75,-305.83 -96.12,-79.74 -214.08,-119.06 -352.79,-119.06 -197.68,0 -354.96,81.94 -471.86,244.67 -115.77,163.85 -185.67,352.82 -208.61,566.88l1343.47 0zm2268.63 -1297.58l0 487.13c168.19,-203.15 344.05,-349.52 527.55,-437.97 183.5,-88.48 404.12,-133.27 661.89,-133.27l0 853.06c-139.81,-126.7 -294.9,-190.07 -464.22,-190.07 -150.72,0 -276.32,44.79 -379.01,135.44 -102.66,89.58 -179.13,205.34 -228.26,347.35 -49.16,141.98 -73.2,283.96 -73.2,427.07l0 1310.68c0,193.34 15.31,351.72 45.89,474.06 31.68,123.4 103.76,227.19 216.25,312.37l-1311.78 0c113.6,-85.18 185.67,-188.97 216.25,-312.37 30.58,-122.33 45.89,-280.72 45.89,-475.15l0 -2010.83c0,-191.14 -15.31,-349.52 -45.89,-474.03 -30.58,-124.5 -102.66,-229.36 -216.25,-313.47l1004.88 0z"/>
   <path fill="#E31E24" fill-rule="nonzero" d="M23834.58 26282.08l91.75 1168.7c-97.22,-167.09 -203.15,-293.8 -318.94,-379.01 -115.77,-84.11 -261.04,-126.7 -434.7,-126.7 -209.71,0 -382.28,62.27 -518.82,186.77 -136.54,124.53 -235.93,282.92 -298.19,475.13 -62.27,193.34 -93.92,388.84 -93.92,589.82 0,212.98 37.12,415.06 112.5,607.3 74.27,191.14 186.77,345.15 337.52,462.02 151.82,115.79 335.32,173.66 553.77,173.66 308,0 552.67,-168.19 732.9,-505.71l-72.1 1123.94c-53.53,-36.05 -112.5,-53.53 -175.86,-53.53 -55.7,0 -108.13,3.27 -156.19,10.91 -49.13,6.57 -120.13,18.58 -214.08,34.95 -93.92,16.41 -159.46,27.31 -196.61,31.68 -37.12,5.47 -85.18,7.64 -141.98,7.64 -326.58,0 -612.76,-88.45 -857.43,-265.41 -244.64,-176.93 -431.44,-411.76 -561.41,-703.39 -128.87,-291.66 -193.34,-597.49 -193.34,-917.5 0,-312.4 61.17,-611.67 182.43,-898.92 121.23,-286.19 300.36,-518.82 534.09,-699.05 234.83,-180.23 511.18,-270.88 830.12,-270.88 75.37,0 180.23,9.84 314.57,29.48 134.34,19.68 238.1,29.51 309.1,29.51 73.17,0 151.82,-37.15 234.83,-111.42zm3583.68 2025.04l-2200.87 0c0,222.82 44.76,423.8 133.24,605.1 89.58,180.23 217.35,323.31 385.57,428.17 168.19,105.96 363.7,158.38 588.72,158.38 358.26,0 692.48,-187.87 1002.68,-563.61l-209.71 1154.5c-46.96,-56.8 -129.97,-85.18 -250.13,-85.18 -95.02,0 -231.56,14.21 -407.39,42.59 -175.86,28.41 -309.1,42.59 -398.68,42.59 -345.15,0 -645.52,-79.71 -898.92,-240.27 -254.47,-159.48 -446.71,-379.04 -578.88,-658.65 -132.17,-279.59 -198.81,-591.99 -198.81,-936.04 0,-338.59 57.9,-653.16 173.69,-945.88 115.77,-291.63 292.73,-527.55 531.92,-706.68 239.2,-178.03 531.92,-267.61 880.35,-267.61 232.66,0 454.38,57.9 661.89,174.76 207.54,116.86 371.37,275.25 491.53,475.13 195.51,314.57 293.8,755.84 293.8,1322.72zm-837.76 -590.92c-8.74,-133.24 -38.22,-262.11 -88.45,-386.65 -51.36,-124.5 -124.53,-226.09 -221.75,-305.83 -96.12,-79.74 -214.08,-119.06 -352.79,-119.06 -197.68,0 -354.96,81.94 -471.86,244.67 -115.77,163.85 -185.67,352.82 -208.61,566.88l1343.47 0zm2313.39 -2476.12l0 3976.87c0,194.44 15.31,352.82 45.89,475.15 31.68,123.4 103.76,227.19 216.25,312.37l-1311.78 0c113.6,-85.18 185.67,-188.97 216.25,-312.37 30.58,-122.33 45.89,-280.72 45.89,-475.15l0 -3189.37c0,-191.14 -15.31,-349.49 -45.89,-474.03 -30.58,-124.5 -102.66,-229.36 -216.25,-313.47l1049.64 0zm1723.57 0l0 3976.87c0,194.44 15.31,352.82 45.89,475.15 31.68,123.4 103.76,227.19 216.25,312.37l-1311.78 0c113.6,-85.18 185.67,-188.97 216.25,-312.37 30.58,-122.33 45.89,-280.72 45.89,-475.15l0 -3189.37c0,-191.14 -15.31,-349.49 -45.89,-474.03 -30.58,-124.5 -102.66,-229.36 -216.25,-313.47l1049.64 0z"/>
  </g>
  <g id="_1988730653184">
   <path fill="#0060AA" fill-rule="nonzero" d="M43637.96 10941.46c685.39,143.83 1249.52,459.76 1689.52,947.73 442.81,490.75 662.85,1080.28 662.85,1774.12 0,533.11 -107.23,1032.37 -318.77,1500.58 -211.51,468.18 -516.15,849.01 -916.63,1142.34 -383.61,279.24 -809.57,459.76 -1277.76,541.59 -471.05,78.96 -1038.01,118.43 -1700.83,118.43l-4535.55 0c363.87,-262.34 595.2,-544.42 696.76,-846.2 98.69,-301.78 149.42,-696.67 149.42,-1187.48l0 -6766.6c0,-423.04 -14.03,-764.35 -42.27,-1026.7 -31.02,-262.34 -107.14,-524.6 -231.27,-784.08 -124.1,-259.51 -313.12,-485.17 -572.63,-676.97l4735.81 0c617.68,0 1201.54,98.72 1751.61,296.2 547.17,197.42 995.62,507.65 1339.79,933.61 344.08,425.88 516.15,956.15 516.15,1596.44 0,445.61 -76.15,820.77 -231.33,1128.22 -155.12,304.65 -372.24,558.46 -654.31,761.54 -279.3,203.09 -634.67,383.61 -1060.55,547.23zm-3350.91 -628.97l710.79 0c733.36,0 1314.39,-98.78 1743.13,-293.36 428.72,-194.64 643.09,-609.23 643.09,-1241.07 0,-612.1 -194.64,-1018.25 -583.86,-1218.5 -392.03,-203.09 -919.47,-304.62 -1582.37,-304.62 -109.98,0 -270.71,2.84 -479.47,8.42 -208.7,5.7 -361.04,8.45 -451.31,8.45l0 3040.68zm0 5077.03l761.54 0c510.54,0 944.96,-39.52 1303.16,-115.65 355.37,-76.15 648.7,-251.06 874.36,-518.99 228.49,-270.79 341.31,-665.69 341.31,-1190.26 0,-468.27 -107.23,-823.64 -321.57,-1071.86 -214.31,-245.36 -490.75,-406.15 -823.55,-485.14 -335.72,-78.96 -727.78,-118.43 -1173.39,-118.43 -115.65,0 -279.21,2.78 -493.59,8.45 -217.21,5.61 -372.32,8.45 -468.27,8.45l0 3483.43zm7277.2 -5141.95l0 -2792.39c231.27,135.41 569.74,203.09 1012.6,203.09 284.83,0 705.09,-28.15 1257.94,-84.57 552.84,-56.42 984.42,-84.66 1300.32,-84.66 1080.28,0 1889.8,265.18 2420.07,798.23 315.9,307.45 513.32,643.09 592.28,1004.13 78.99,361.04 118.51,843.34 118.51,1449.77l0 4191.41c0,499.26 39.44,905.43 115.65,1218.5 76.15,313.15 262.29,583.92 558.46,815.19l-2470.85 0c-104.31,-282.08 -180.52,-603.59 -236.94,-964.63 -736.14,789.78 -1571.03,1184.59 -2504.65,1184.59 -518.99,0 -990.09,-115.59 -1413.14,-349.67 -423.04,-231.33 -755.93,-555.71 -998.46,-973.14 -242.61,-414.62 -363.87,-882.89 -363.87,-1401.88 0,-843.34 270.76,-1517.45 809.49,-2019.48 541.56,-504.96 1210.05,-854.71 2011.12,-1052.1 798.23,-197.5 1619,-296.2 2459.51,-296.2 0,-510.48 -45.14,-913.88 -138.16,-1204.38 -93.08,-290.5 -270.76,-510.54 -538.78,-657.24 -267.96,-143.83 -657.15,-217.12 -1164.86,-217.12 -1280.62,0 -2222.65,411.76 -2826.25,1232.56zm4668.04 2098.53c-823.64,0 -1551.3,141.08 -2183.13,425.91 -631.8,284.88 -947.73,786.92 -947.73,1500.58 0,377.99 132.58,702.34 394.89,975.89 262.34,273.63 583.86,411.85 959.02,411.85 696.67,0 1289.04,-383.61 1776.95,-1150.82l0 -2163.4zm6467.62 -7683.29l0 10269.76c0,502.09 39.52,911.1 118.51,1227.01 81.8,318.68 267.93,586.7 558.43,806.68l-3387.51 0c293.36,-219.99 479.47,-488 558.46,-806.68 78.99,-315.9 118.51,-724.91 118.51,-1227.01l0 -8236.16c0,-493.59 -39.52,-902.51 -118.51,-1224.11 -78.99,-321.51 -265.09,-592.28 -558.46,-809.49l2710.57 0zm4484.75 1049.26l0 2030.85 1723.37 0c428.74,0 733.36,-95.95 916.75,-290.58l-169.24 1762.92 -2470.88 0 0 4448.06c0,1128.25 502.12,1692.38 1503.41,1692.38 533.11,0 1026.7,-203.09 1475.17,-612.1l-338.47 1985.71c-648.73,236.94 -1269.25,355.37 -1864.39,355.37 -905.43,0 -1602.11,-262.26 -2084.41,-784.11 -482.39,-521.83 -724.91,-1235.4 -724.91,-2143.66l0 -4941.64 -1334.18 0 3367.78 -3503.19zm5330.72 22156.41l0 1977.26c0,631.83 45.14,1133.87 138.22,1506.19 93.11,372.32 327.19,699.51 705.12,981.56l-3889.6 0c363.87,-262.32 595.2,-544.39 696.73,-846.18 98.69,-301.78 149.44,-696.67 149.44,-1187.51l0 -6766.57c0,-423.04 -14.06,-764.35 -42.3,-1026.7 -30.99,-262.34 -107.14,-524.6 -231.24,-784.11 -124.13,-259.48 -313.15,-485.14 -572.63,-676.94l4301.45 0c578.16,0 1111.3,62.03 1602.05,188.97 490.81,124.1 925.17,321.57 1303.16,586.7 377.91,267.93 676.94,617.68 894.06,1052.1 217.21,431.49 327.21,950.48 327.21,1556.91 0,795.45 -152.28,1432.87 -454.06,1909.59 -304.65,476.69 -705.21,823.61 -1207.24,1037.98 -502.09,217.21 -1040.82,352.59 -1613.39,409.01 -575.41,53.56 -1277.76,81.74 -2106.98,81.74zm0 -1576.7l947.73 0c369.46,0 710.79,-73.32 1018.25,-217.21 310.23,-143.83 552.84,-355.37 727.69,-634.58 177.68,-279.24 265.09,-612.1 265.09,-992.87 0,-631.8 -200.25,-1091.57 -597.89,-1384.9 -400.56,-293.33 -922.39,-440.03 -1568.25,-440.03 -87.44,0 -220.04,2.84 -400.56,8.45 -177.68,5.67 -310.26,8.45 -392.06,8.45l0 3652.69zm6687.67 -676.97l0 -2792.37c231.24,135.38 569.74,203.09 1012.58,203.09 284.83,0 705.12,-28.18 1257.96,-84.57 552.84,-56.42 984.42,-84.66 1300.32,-84.66 1080.28,0 1889.77,265.18 2420.04,798.2 315.93,307.48 513.32,643.12 592.31,1004.16 78.96,361.04 118.51,843.34 118.51,1449.77l0 4191.38c0,499.29 39.44,905.43 115.65,1218.53 76.15,313.12 262.26,583.92 558.46,815.16l-2470.88 0c-104.31,-282.05 -180.52,-603.56 -236.91,-964.6 -736.14,789.78 -1571.03,1184.59 -2504.65,1184.59 -518.99,0 -990.09,-115.59 -1413.14,-349.7 -423.07,-231.33 -755.93,-555.68 -998.48,-973.14 -242.61,-414.6 -363.87,-882.86 -363.87,-1401.85 0,-843.34 270.79,-1517.45 809.52,-2019.48 541.56,-504.96 1210.05,-854.71 2011.12,-1052.13 798.2,-197.47 1618.97,-296.17 2459.51,-296.17 0,-510.48 -45.14,-913.88 -138.16,-1204.38 -93.11,-290.53 -270.79,-510.57 -538.81,-657.24 -267.93,-143.83 -657.15,-217.12 -1164.86,-217.12 -1280.59,0 -2222.65,411.76 -2826.22,1232.53zm4668.04 2098.56c-823.64,0 -1551.33,141.05 -2183.13,425.88 -631.83,284.91 -947.73,786.95 -947.73,1500.58 0,377.99 132.55,702.37 394.89,975.92 262.34,273.6 583.86,411.85 959.02,411.85 696.67,0 1289.04,-383.61 1776.95,-1150.82l0 -2163.4zm6402.75 -4639.86l0 733.36c510.54,-634.67 1193.09,-950.57 2047.75,-950.57 753.15,0 1396.18,220.04 1929.29,657.21 533.11,437.19 930.84,1001.32 1193.09,1692.38 262.34,693.84 394.89,1404.63 394.89,2137.99 0,848.95 -124.1,1669.81 -372.32,2462.34 -248.2,792.62 -651.54,1449.83 -1209.99,1968.85 -561.35,518.99 -1280.59,778.41 -2157.78,778.41 -643.09,0 -1229.78,-197.42 -1760.06,-592.31l0 1387.76c0,499.26 47.97,908.18 146.67,1221.28 98.78,315.9 315.9,586.67 651.62,809.57l-3508.86 0c293.33,-220.07 479.47,-488 558.46,-806.74 78.96,-315.93 118.48,-724.86 118.48,-1221.28l0 -8244.67c0,-493.59 -39.52,-902.6 -118.48,-1224.11 -78.99,-321.51 -265.12,-592.28 -558.46,-809.49l2645.7 0zm64.87 7358.94c307.45,380.77 685.45,578.16 1133.92,595.14 809.49,0 1384.9,-355.45 1723.37,-1069 341.25,-713.66 510.48,-1528.82 510.48,-2448.31 0,-462.57 -67.71,-930.78 -200.25,-1404.63 -132.55,-471.02 -352.53,-868.74 -654.37,-1190.35 -301.81,-321.51 -688.25,-482.3 -1159.27,-482.3 -541.56,0 -992.84,270.79 -1353.88,812.35l0 5187.09zm14647.33 -2482.13l-5683.45 0c0,575.38 115.59,1094.4 344.08,1562.58 231.33,465.4 561.29,834.89 995.71,1105.69 434.33,273.6 939.2,409.01 1520.28,409.01 925.17,0 1788.24,-485.17 2589.31,-1455.44l-541.56 2981.33c-121.29,-146.67 -335.63,-219.99 -645.95,-219.99 -245.39,0 -597.98,36.69 -1052.04,110.01 -454.12,73.35 -798.2,109.98 -1029.53,109.98 -891.31,0 -1666.98,-205.87 -2321.35,-620.46 -657.15,-411.85 -1153.6,-978.81 -1494.91,-1700.89 -341.31,-722.02 -513.38,-1528.76 -513.38,-2417.24 0,-874.36 149.5,-1686.68 448.54,-2442.61 298.95,-753.1 755.9,-1362.33 1373.61,-1824.93 617.68,-459.73 1373.61,-691.06 2273.38,-691.06 600.82,0 1173.39,149.5 1709.25,451.28 535.97,301.81 959.02,710.82 1269.34,1226.98 504.87,812.32 758.68,1951.86 758.68,3415.75zm-2163.4 -1525.98c-22.57,-344.08 -98.69,-676.88 -228.41,-998.46 -132.63,-321.51 -321.6,-583.86 -572.63,-789.78 -248.23,-205.92 -552.84,-307.45 -911.05,-307.45 -510.48,0 -916.66,211.59 -1218.53,631.8 -298.95,423.13 -479.47,911.1 -538.69,1463.89l3469.31 0zm5858.45 -3350.82l0 1257.96c434.36,-524.6 888.48,-902.6 1362.36,-1131.03 473.85,-228.49 1043.59,-344.14 1709.25,-344.14l0 2202.92c-361.04,-327.19 -761.54,-490.84 -1198.79,-490.84 -389.19,0 -713.54,115.68 -978.72,349.75 -265.09,231.33 -462.6,530.3 -589.44,897.01 -126.96,366.62 -189.05,733.28 -189.05,1102.85l0 3384.65c0,499.29 39.52,908.3 118.51,1224.2 81.8,318.68 267.93,586.7 558.43,806.65l-3387.51 0c293.36,-219.96 479.49,-487.97 558.46,-806.65 78.99,-315.9 118.51,-724.91 118.51,-1227.03l0 -5192.7c0,-493.59 -39.52,-902.6 -118.51,-1224.11 -78.96,-321.51 -265.09,-592.28 -558.46,-809.49l2594.98 0z"/>
   <path fill="#E31E24" fill-rule="nonzero" d="M73132.91 7353.64l236.91 3018.02c-251.03,-431.49 -524.57,-758.68 -823.61,-978.72 -298.95,-217.21 -674.11,-327.21 -1122.58,-327.21 -541.56,0 -987.17,160.82 -1339.76,482.33 -352.59,321.57 -609.26,730.58 -770.05,1226.95 -160.79,499.26 -242.53,1004.13 -242.53,1523.12 0,550.01 95.86,1071.83 290.5,1568.28 191.8,493.59 482.3,891.31 871.58,1193.09 392.06,299.03 865.91,448.45 1430.04,448.45 795.4,0 1427.2,-434.33 1892.63,-1305.91l-186.22 2902.43c-138.22,-93.11 -290.5,-138.22 -454.12,-138.22 -143.83,0 -279.24,8.42 -403.34,28.15 -126.88,16.96 -310.23,47.97 -552.84,90.27 -242.53,42.36 -411.76,70.51 -507.71,81.8 -95.86,14.12 -219.99,19.73 -366.65,19.73 -843.34,0 -1582.37,-228.41 -2214.21,-685.39 -631.75,-456.9 -1114.1,-1063.33 -1449.74,-1816.39 -332.8,-753.18 -499.29,-1542.94 -499.29,-2369.32 0,-806.74 157.95,-1579.57 471.1,-2321.38 313.07,-739.03 775.66,-1339.76 1379.23,-1805.19 606.43,-465.4 1320.06,-699.51 2143.66,-699.51 194.64,0 465.43,25.4 812.35,76.15 346.92,50.81 614.85,76.21 798.2,76.21 188.97,0 392.06,-95.95 606.43,-287.75zm9254.41 5229.39l-5683.48 0c0,575.41 115.59,1094.4 344.08,1562.58 231.33,465.43 561.29,834.89 995.71,1105.69 434.33,273.63 939.2,409.01 1520.28,409.01 925.17,0 1788.24,-485.14 2589.31,-1455.44l-541.56 2981.33c-121.26,-146.67 -335.63,-219.96 -645.95,-219.96 -245.36,0 -597.95,36.69 -1052.01,109.98 -454.15,73.38 -798.23,109.98 -1029.56,109.98 -891.31,0 -1666.98,-205.84 -2321.35,-620.46 -657.15,-411.85 -1153.57,-978.81 -1494.91,-1700.89 -341.31,-721.99 -513.38,-1528.73 -513.38,-2417.21 0,-874.36 149.5,-1686.71 448.54,-2442.64 298.95,-753.07 755.93,-1362.33 1373.61,-1824.9 617.71,-459.76 1373.64,-691.09 2273.38,-691.09 600.82,0 1173.39,149.53 1709.28,451.31 535.95,301.78 959.02,710.79 1269.31,1226.95 504.87,812.32 758.71,1951.86 758.71,3415.75zm-2163.4 -1525.98c-22.57,-344.08 -98.72,-676.88 -228.43,-998.46 -132.6,-321.51 -321.57,-583.86 -572.63,-789.78 -248.23,-205.92 -552.84,-307.45 -911.05,-307.45 -510.48,0 -916.63,211.59 -1218.5,631.8 -298.95,423.13 -479.47,911.13 -538.72,1463.89l3469.34 0zm5974.01 -6394.25l0 10269.76c0,502.09 39.55,911.1 118.51,1227.01 81.83,318.68 267.93,586.7 558.46,806.68l-3387.51 0c293.33,-219.99 479.47,-488 558.43,-806.68 78.99,-315.9 118.51,-724.91 118.51,-1227.01l0 -8236.16c0,-493.59 -39.52,-902.51 -118.51,-1224.11 -78.96,-321.51 -265.09,-592.28 -558.43,-809.49l2710.54 0zm4450.92 0l0 10269.76c0,502.09 39.52,911.1 118.48,1227.01 81.83,318.68 267.96,586.7 558.46,806.68l-3387.51 0c293.33,-219.99 479.47,-488 558.46,-806.68 78.96,-315.9 118.48,-724.91 118.48,-1227.01l0 -8236.16c0,-493.59 -39.52,-902.51 -118.48,-1224.11 -78.99,-321.51 -265.12,-592.28 -558.46,-809.49l2710.57 0z"/>
  </g>
 </g>
</svg>
